<svg width="19" height="17" viewBox="0 0 19 17" fill="none" xmlns="http://www.w3.org/2000/svg">
    <!-- MyLogo -->

    <g id="MyLogo" transform="translate(0.000000,195.000000) scale(0.100000,-0.100000)"
       stroke="none">
        <path d="M2535 1764 c-588 -67 -1079 -123 -1090 -122 -19 0 2 6 177 45 l77 18
-402 1 c-288 0 -454 5 -587 17 -304 28 -312 27 -452 -40 l-119 -57 6 -35 c10
-58 16 -71 30 -71 11 0 12 -6 5 -25 -5 -14 -12 -83 -14 -153 -3 -105 -9 -139
-30 -198 -31 -85 -33 -143 -10 -301 15 -106 15 -116 -2 -190 -22 -94 -25 -279
-6 -336 8 -21 25 -51 39 -67 21 -26 22 -31 9 -36 -12 -5 -16 -20 -16 -63 l0
-56 238 0 c192 -1 266 -5 389 -23 l152 -23 203 21 c513 51 825 80 853 79 16
-1 -42 -16 -130 -35 l-160 -34 180 5 c99 3 288 13 420 21 261 18 448 14 605
-11 196 -31 257 -37 355 -30 84 5 701 82 801 100 23 4 39 17 62 53 70 109 93
219 93 450 0 106 6 176 21 252 14 73 19 131 16 192 -4 75 -9 96 -42 162 l-37
76 26 37 25 38 -57 3 c-55 2 -103 17 -103 32 0 4 22 19 50 34 61 33 90 69 90
110 0 41 -22 72 -63 85 -46 15 -205 31 -317 31 l-96 0 4 40 c2 22 1 52 -2 65
-8 30 -61 65 -96 64 -14 -1 -506 -57 -1095 -125z m-2052 -252 c14 -6 6 -18
-48 -72 -76 -76 -79 -71 -39 68 4 13 57 15 87 4z m477 -11 c0 -5 -9 -19 -20
-32 l-19 -24 -1 26 c0 14 3 29 7 32 9 10 33 8 33 -2z m233 -60 c6 -25 73 -53
107 -46 20 4 33 -3 69 -39 36 -37 41 -47 32 -64 -15 -28 16 -99 47 -107 20 -5
22 -11 22 -74 0 -64 -2 -69 -23 -75 -31 -7 -58 -72 -45 -106 8 -20 2 -30 -35
-68 -38 -38 -47 -43 -64 -33 -30 15 -101 -14 -109 -46 -6 -21 -11 -23 -74 -23
-62 0 -68 2 -74 23 -4 15 -23 29 -58 45 -29 12 -58 22 -64 22 -7 0 -17 -20
-23 -45 -13 -51 -71 -122 -107 -131 -27 -7 -31 -19 -10 -27 7 -3 23 -26 35
-51 22 -45 23 -45 79 -48 53 -3 58 -5 72 -35 14 -30 19 -33 62 -33 l47 0 3
122 3 123 35 -3 c61 -4 70 -26 70 -169 0 -68 -5 -133 -10 -144 -13 -24 -60
-44 -125 -53 -28 -4 -61 -10 -75 -13 -22 -6 -24 -5 -11 10 12 16 3 17 -130 17
-167 1 -212 9 -248 45 -24 23 -26 34 -29 119 -2 56 1 102 7 114 9 17 8 22 -8
27 -33 10 -91 83 -103 129 -7 27 -19 46 -29 49 -30 8 -54 55 -43 85 6 17 6 45
1 73 -19 97 37 205 129 250 68 33 201 38 272 11 l54 -21 -7 37 c-5 34 -2 41
34 76 33 32 43 37 68 32 37 -8 99 17 108 44 6 17 15 20 75 20 59 0 68 -3 73
-19z m614 -123 c10 -12 39 -103 69 -213 7 -27 20 -72 28 -98 l15 -48 -37 3
c-35 3 -37 5 -53 58 -15 51 -19 55 -52 61 -30 5 -37 2 -46 -18 -6 -13 -11 -30
-11 -38 0 -8 -5 -26 -12 -40 -9 -20 -18 -25 -46 -25 -23 0 -33 4 -29 13 2 6
26 84 52 172 26 88 52 166 57 173 6 6 21 12 33 12 12 0 27 -6 32 -12z m260 4
c7 -4 30 -50 52 -102 44 -104 45 -103 41 38 l-2 73 34 -3 33 -3 2 -172 c1
-184 -2 -198 -48 -191 -25 3 -26 5 -77 113 l-37 80 -5 -95 c-5 -94 -5 -95 -30
-95 l-25 0 -1 170 c-1 103 2 175 8 183 12 14 37 16 55 4z m490 -24 c-3 -28 -7
-33 -31 -33 -48 -1 -56 -25 -56 -173 l0 -133 -32 3 c-26 2 -33 7 -31 23 5 58
4 205 -2 237 -6 34 -10 37 -44 40 -33 3 -36 6 -39 36 l-3 32 121 0 121 0 -4
-32z m272 6 c19 -16 31 -35 31 -50 0 -14 4 -23 9 -20 14 9 31 -43 31 -97 -1
-105 -59 -180 -137 -175 -49 2 -103 30 -103 53 0 8 -9 30 -20 50 -22 39 -28
135 -9 135 6 0 9 6 6 14 -6 14 9 38 55 87 37 39 93 40 137 3z m245 4 c7 -13
26 -56 41 -95 16 -40 31 -73 35 -73 4 0 8 28 8 63 0 132 -1 127 32 127 l30 0
-1 -173 c0 -95 -4 -179 -8 -186 -11 -17 -62 -10 -72 9 -5 8 -23 50 -41 94
l-33 78 -5 -93 c-5 -93 -5 -94 -32 -97 -18 -2 -28 3 -32 15 -8 31 -4 317 6
336 13 24 55 22 72 -5z m-1352 -520 l3 -71 28 24 c20 17 30 37 34 67 5 40 7
42 39 42 32 0 34 -2 34 -32 0 -18 -10 -53 -21 -77 l-20 -45 21 -28 c25 -34 32
-57 34 -118 1 -41 -1 -45 -25 -48 -23 -3 -26 1 -40 59 -14 63 -53 110 -78 95
-6 -4 -11 -33 -11 -64 0 -85 -7 -102 -41 -102 l-29 0 0 185 1 185 34 0 34 0 3
-72z m446 -38 c58 -187 72 -236 72 -248 0 -7 -14 -12 -34 -12 -32 0 -34 2 -50
60 -9 33 -22 60 -29 61 -7 0 -22 2 -34 3 -24 3 -34 -13 -52 -81 -11 -40 -14
-43 -46 -43 -19 0 -35 4 -35 8 0 4 14 53 30 107 17 55 38 125 46 155 23 80 40
102 72 98 25 -3 30 -11 60 -108z m354 71 c34 -38 36 -78 8 -136 -19 -40 -19
-43 -3 -76 9 -19 20 -53 23 -76 l7 -43 -34 0 c-20 0 -33 5 -33 13 0 28 -21 85
-39 106 -10 11 -28 21 -40 21 -19 0 -21 -5 -21 -64 0 -67 -13 -86 -44 -63 -12
10 -16 44 -21 175 -3 89 -3 168 1 174 5 7 34 9 88 5 74 -5 83 -8 108 -36z
m194 -20 c-2 -32 0 -64 4 -71 13 -22 59 33 66 79 6 39 8 41 42 41 l35 0 -7
-41 c-4 -22 -15 -58 -26 -79 l-19 -37 23 -22 c13 -12 27 -37 31 -54 4 -18 9
-39 11 -47 2 -8 1 -27 -2 -42 -4 -21 -11 -28 -29 -28 -20 0 -25 6 -30 38 -10
58 -25 90 -51 107 -38 24 -44 19 -45 -42 -1 -85 -10 -107 -42 -111 l-27 -3 0
185 1 186 34 0 34 0 -3 -59z m463 33 c17 -14 31 -34 31 -45 0 -10 4 -19 8 -19
16 0 32 -51 32 -103 0 -116 -74 -192 -196 -201 -46 -4 -61 -3 -44 3 14 5 39
10 55 10 l30 2 -38 20 c-21 11 -40 28 -43 37 -3 9 -14 34 -25 55 -21 43 -26
137 -8 137 6 0 9 6 6 14 -6 14 9 38 55 87 37 39 93 40 137 3z m-2194 -125 c11
-1 0 -5 -25 -8 -51 -7 -55 -7 -45 9 4 7 17 9 29 6 11 -3 30 -6 41 -7z m-518
-39 c-8 -20 -20 -31 -40 -36 -16 -3 -31 -4 -33 -1 -4 4 74 67 82 67 1 0 -3
-13 -9 -30z m1003 -15 c0 -13 -21 -15 -125 -15 -104 0 -125 2 -125 15 0 13 21
15 125 15 104 0 125 -2 125 -15z m0 -70 c0 -13 -21 -15 -125 -15 -104 0 -125
2 -125 15 0 13 21 15 125 15 104 0 125 -2 125 -15z m2172 -66 c3 -34 2 -36
-18 -27 -21 10 -21 11 -5 51 9 23 17 35 18 27 1 -8 3 -31 5 -51z m-2382 -4 c0
-8 -9 -15 -20 -15 -11 0 -20 7 -20 15 0 8 9 15 20 15 11 0 20 -7 20 -15z m70
0 c0 -8 -9 -15 -20 -15 -11 0 -20 7 -20 15 0 8 9 15 20 15 11 0 20 -7 20 -15z
m70 0 c0 -8 -9 -15 -20 -15 -11 0 -20 7 -20 15 0 8 9 15 20 15 11 0 20 -7 20
-15z m70 0 c0 -8 -9 -15 -20 -15 -11 0 -20 7 -20 15 0 8 9 15 20 15 11 0 20
-7 20 -15z m-605 -185 c-3 -5 -13 -10 -21 -10 -8 0 -12 5 -9 10 3 6 13 10 21
10 8 0 12 -4 9 -10z m2680 -60 c-22 -4 -60 -10 -85 -13 l-45 -5 40 13 c22 7
60 13 85 13 l45 0 -40 -8z m-1482 -117 c-7 -2 -21 -2 -30 0 -10 3 -4 5 12 5
17 0 24 -2 18 -5z"/>
        <path d="M1072 1409 c-10 -25 -72 -52 -121 -52 -46 0 -84 -36 -76 -70 4 -14 2
-34 -4 -45 -8 -15 -7 -23 4 -32 11 -9 17 -6 29 17 18 36 72 86 112 107 115 57
266 2 325 -120 31 -66 25 -163 -17 -230 -61 -99 -193 -142 -297 -96 -25 11
-48 18 -51 14 -16 -15 -2 -31 44 -50 30 -12 50 -27 50 -36 0 -24 87 -22 94 2
9 24 116 65 134 50 20 -17 78 43 65 67 -13 22 25 123 50 131 22 7 24 82 2 90
-23 9 -66 113 -55 133 7 14 3 24 -20 46 -16 16 -33 24 -40 20 -20 -13 -122 27
-133 53 -14 31 -84 32 -95 1z"/>
        <path d="M1055 1313 c-42 -11 -92 -54 -119 -103 -13 -23 -12 -28 11 -54 l24
-29 35 34 c26 25 37 30 46 21 9 -9 5 -19 -17 -42 l-29 -30 27 -28 c21 -22 24
-31 15 -40 -9 -9 -18 -6 -39 14 l-27 25 -7 -57 c-7 -55 -6 -59 20 -80 31 -25
89 -44 131 -44 35 0 123 40 146 66 26 30 58 106 58 140 0 46 -27 114 -58 148
-51 54 -140 78 -217 59z m95 -102 c0 -9 -7 -59 -15 -111 -8 -52 -15 -98 -15
-102 0 -5 -8 -8 -18 -8 -18 0 -18 5 -6 93 22 153 23 157 39 150 8 -3 15 -13
15 -22z m95 -61 l39 -40 -39 -40 c-30 -31 -42 -37 -52 -28 -11 9 -9 16 13 40
l28 28 -28 29 c-25 26 -29 51 -7 51 4 0 25 -18 46 -40z"/>
        <path d="M535 1231 c-75 -34 -120 -112 -113 -195 4 -48 28 -62 28 -18 0 37 40
87 77 97 15 3 33 15 41 26 16 23 62 26 62 4 0 -8 -6 -15 -14 -15 -21 0 -31
-21 -15 -31 8 -5 69 -9 137 -9 135 0 156 -9 169 -70 3 -17 12 -30 19 -30 24 0
19 112 -7 144 -11 14 -26 26 -33 26 -7 0 -25 14 -42 31 -43 47 -82 59 -181 59
-64 0 -99 -6 -128 -19z"/>
        <path d="M540 1082 c-23 -7 -50 -34 -50 -49 0 -10 19 -13 74 -13 76 0 90 -7
98 -45 5 -27 32 -26 36 2 5 34 23 42 102 45 70 3 73 4 56 21 -15 14 -37 17
-139 17 -87 0 -128 4 -142 14 -11 7 -27 11 -35 8z"/>
        <path d="M490 930 l0 -61 68 3 67 3 0 55 0 55 -67 3 -68 3 0 -61z m104 4 c9
-8 16 -20 16 -25 0 -14 -38 -11 -43 4 -4 10 -7 10 -18 0 -17 -17 -39 -17 -39
0 0 35 56 50 84 21z"/>
        <path d="M734 976 c-3 -7 -4 -33 -2 -57 l3 -44 68 -3 67 -3 0 61 0 60 -65 0
c-47 0 -67 -4 -71 -14z m110 -48 c15 -24 -1 -35 -27 -19 -15 10 -22 10 -25 2
-4 -13 -42 -15 -42 -2 0 38 73 52 94 19z"/>
        <path d="M424 935 c-8 -19 2 -45 16 -45 5 0 10 14 10 30 0 31 -16 41 -26 15z"/>
        <path d="M910 920 c0 -21 4 -30 13 -27 6 2 12 14 12 27 0 13 -6 25 -12 28 -9
2 -13 -7 -13 -28z"/>
        <path d="M660 892 c0 -46 -27 -62 -103 -62 -76 0 -81 -7 -44 -60 43 -63 69
-75 167 -75 98 0 124 12 168 75 36 54 31 60 -47 60 -79 0 -101 13 -101 61 0
22 -5 29 -20 29 -15 0 -20 -7 -20 -28z m-10 -112 c6 -11 19 -20 30 -20 11 0
24 9 30 20 13 23 40 27 40 5 0 -25 -38 -55 -70 -55 -32 0 -70 30 -70 55 0 22
27 18 40 -5z"/>
        <path d="M1120 586 c0 -89 3 -106 15 -106 13 0 15 16 13 102 -2 70 -7 103 -15
106 -10 3 -13 -22 -13 -102z"/>
        <path d="M622 649 c-27 -10 -35 -43 -30 -126 4 -57 8 -69 32 -90 26 -22 35
-24 119 -21 l92 3 3 40 c4 47 -15 65 -69 65 -28 0 -43 -6 -57 -24 -12 -16 -23
-22 -32 -16 -11 7 -10 13 3 34 29 44 17 128 -20 138 -10 3 -29 1 -41 -3z"/>
        <path d="M730 595 c0 -45 0 -45 35 -45 19 0 35 2 35 5 0 17 -33 66 -50 75 -19
10 -20 8 -20 -35z"/>
        <path d="M877 513 c-18 -17 -5 -33 28 -33 23 0 35 5 35 14 0 21 -47 35 -63 19z"/>
        <path d="M877 443 c-4 -3 -7 -12 -7 -20 0 -11 27 -13 137 -11 122 3 138 5 141
21 3 15 -8 17 -131 17 -73 0 -137 -3 -140 -7z"/>
        <path d="M1771 1193 c-1 -6 -4 -18 -7 -27 -4 -11 -1 -16 10 -16 18 0 19 6 6
35 -5 11 -9 15 -9 8z"/>
        <path d="M2713 1233 c-25 -38 -33 -126 -14 -164 43 -91 134 -37 132 78 -1 97
-76 151 -118 86z"/>
        <path d="M2095 707 c-4 -10 -5 -21 -1 -24 10 -10 18 4 13 24 -4 17 -4 17 -12
0z"/>
        <path d="M2390 740 c0 -49 1 -50 30 -50 31 0 70 30 70 53 0 23 -35 47 -68 47
-32 0 -32 -1 -32 -50z"/>
        <path d="M3060 758 c-14 -24 -20 -50 -20 -94 0 -51 4 -65 25 -88 29 -32 57
-29 93 10 21 24 26 48 22 109 -3 42 -19 69 -20 33 0 -16 -4 -28 -9 -28 -5 0
-9 19 -8 43 2 41 1 42 -30 45 -28 3 -36 -2 -53 -30z"/>
    </g>

    <!-- MobileMenu -->
    <g id="download">
        <path d="M9.33356 11L12.6669 7.66667M9.33356 11V1V11ZM9.33356 11L6.00023 7.66667L9.33356 11Z"
              stroke-width="2" stroke-linecap="round" stroke-linejoin="round"/>
        <path d="M1.00023 12.6667L1.51773 14.7376C1.60786 15.0981 1.81592 15.4182 2.10884 15.647C2.40176 15.8757 2.76274 16 3.1344 16.0001H15.5327C15.9044 16 16.2654 15.8757 16.5583 15.647C16.8512 15.4182 17.0593 15.0981 17.1494 14.7376L17.6669 12.6667"
              stroke-width="2" stroke-linecap="round" stroke-linejoin="round"/>
    </g>
    <g id="mail">
        <path d="M16.875 0H0.625C0.279297 0 0 0.279297 0 0.625V13.125C0 13.4707 0.279297 13.75 0.625 13.75H16.875C17.2207 13.75 17.5 13.4707 17.5 13.125V0.625C17.5 0.279297 17.2207 0 16.875 0ZM15.2969 2.12695L9.13477 6.92188C8.98242 7.04102 8.76953 7.04102 8.61719 6.92188L2.45312 2.12695C2.42989 2.10902 2.41285 2.08427 2.40438 2.05616C2.39592 2.02806 2.39647 1.99801 2.40594 1.97023C2.41542 1.94245 2.43335 1.91833 2.45722 1.90125C2.48109 1.88418 2.50971 1.875 2.53906 1.875H15.2109C15.2403 1.875 15.2689 1.88418 15.2928 1.90125C15.3167 1.91833 15.3346 1.94245 15.3441 1.97023C15.3535 1.99801 15.3541 2.02806 15.3456 2.05616C15.3372 2.08427 15.3201 2.10902 15.2969 2.12695Z"
              fill="#dcccbe"/>
    </g>

    <!-- skills -->
    <g id="figma">
        <path d="M63.8833 36.1167C67.4928 36.0084 70.9181 34.4984 73.4329 31.907C75.9477 29.3156 77.3542 25.8466 77.3542 22.2355C77.3542 18.6244 75.9477 15.1554 73.4329 12.564C70.9181 9.97255 67.4928 8.46257 63.8833 8.35425H36.1167C32.5072 8.46257 29.0819 9.97255 26.5671 12.564C24.0523 15.1554 22.6458 18.6244 22.6458 22.2355C22.6458 25.8466 24.0523 29.3156 26.5671 31.907C29.0819 34.4984 32.5072 36.0084 36.1167 36.1167C32.4757 36.1798 29.0051 37.6705 26.4526 40.2676C23.9 42.8648 22.4697 46.3606 22.4697 50.0022C22.4697 53.6437 23.9 57.1395 26.4526 59.7367C29.0051 62.3338 32.4757 63.8245 36.1167 63.8876C32.4935 63.9764 29.0485 65.478 26.5173 68.072C23.9862 70.6659 22.5693 74.1466 22.5693 77.7709C22.5693 81.3952 23.9862 84.8759 26.5173 87.4698C29.0485 90.0638 32.4935 91.5655 36.1167 91.6542C39.7988 91.652 43.3294 90.188 45.9327 87.584C48.536 84.9799 49.9989 81.4489 50 77.7667V36.1167H63.8833Z"
              fill="#dcccbe" fill-opacity="0.5"/>
        <path d="M63.8833 63.8834C71.5509 63.8834 77.7667 57.6676 77.7667 50C77.7667 42.3325 71.5509 36.1167 63.8833 36.1167C56.2158 36.1167 50 42.3325 50 50C50 57.6676 56.2158 63.8834 63.8833 63.8834Z"
              fill="#dcccbe" fill-opacity="0.5"/>
    </g>
    <g id="html">
        <path d="M0 0L6.44531 72.9102L35.8203 81.25L65.0781 72.9102L71.6504 0H0ZM58.1055 17.2949L57.6367 21.9043L57.4707 23.8086H23.1543L23.9551 33.0078H56.6797L56.3574 35.3809L54.2871 59.0332L54.1211 60.6152L35.8594 65.6543V65.6836H35.7422L35.7129 65.6934V65.6836H35.7031L17.2852 60.6055L16.1719 46.4844H25.0684L25.7031 53.6328L35.7031 56.3379H35.7422L45.7031 53.6426L46.8164 42.0605H35.7129V42.0508H15.7031L13.4766 17.2949L13.3105 14.9219H58.2617L58.1055 17.2949V17.2949Z"
              fill="#dcccbe" fill-opacity="0.5"/>
    </g>
    <g id="css">
        <path d="M0 0H65.0625L59.1458 66.8083L32.4625 74.3583L5.925 66.8042L0 0ZM52.95 13.6708L12.1167 13.6625L12.775 21.7833L44.1458 21.7917L43.3583 30.2083H22.7833L23.5292 38.1792H42.6833L41.55 49.0958L32.5333 51.5875L23.3792 49.075L22.7917 42.5375H14.7083L15.6083 54.4833L32.5333 59.7542L49.1792 55.0167L52.95 13.6708V13.6708Z"
              fill="#dcccbe" fill-opacity="0.5"/>
    </g>
    <g id="sass">
        <path d="M47.1636 56.7056C47.1167 56.7993 47.0698 56.8743 47.1636 56.7056V56.7056ZM86.0886 43.1118C82.9448 43.1118 79.8448 43.8306 77.0261 45.2212C76.1042 43.3618 75.1511 41.7368 74.9948 40.5181C74.8073 39.0962 74.6042 38.2525 74.8229 36.565C75.0417 34.8775 76.0261 32.4868 76.0104 32.315C75.9948 32.1431 75.7917 31.2837 73.7761 31.2681C71.7604 31.2525 70.0261 31.6587 69.8229 32.19C69.4663 33.1606 69.1893 34.1587 68.9948 35.1743C68.6354 37.0025 64.9667 43.5337 62.8886 46.94C62.2011 45.6118 61.6229 44.44 61.4979 43.5025C61.3104 42.0806 61.1073 41.2368 61.3261 39.5493C61.5448 37.8618 62.5292 35.4712 62.5136 35.2993C62.4979 35.1275 62.2948 34.2681 60.2823 34.2525C58.2698 34.2368 56.5323 34.6431 56.3292 35.1743C56.1261 35.7056 55.9073 36.9556 55.5011 38.1587C55.0948 39.3618 50.2042 50.2368 48.9261 53.065C48.2698 54.5025 47.7073 55.6587 47.3011 56.44C47.2386 56.565 47.1917 56.6431 47.1604 56.7056C47.2073 56.6275 47.2386 56.5493 47.2386 56.5806C46.8948 57.2525 46.6917 57.6275 46.6917 57.6275V57.6431C46.4261 58.1431 46.1292 58.5962 45.9886 58.5962C45.8948 58.5962 45.6917 57.2837 46.0354 55.4868C46.7698 51.7056 48.5042 45.8306 48.4886 45.6275C48.4729 45.5181 48.8167 44.5025 47.3479 43.9556C45.9261 43.44 45.4104 44.2993 45.2854 44.2993C45.1604 44.2993 45.0667 44.6118 45.0667 44.6118C45.0667 44.6118 46.6448 37.9868 42.0354 37.9868C39.1604 37.9868 35.1604 41.1431 33.1948 44.0025C31.9604 44.6743 29.2886 46.1275 26.4761 47.6743L23.2417 49.4556C23.1636 49.3775 23.1011 49.2993 23.0229 49.2212C17.4292 43.2525 7.10419 39.0337 7.54169 31.0181C7.69794 28.0962 8.71357 20.4243 27.3979 11.1118C42.7104 3.48684 54.9511 5.58059 57.0604 10.2368C60.0917 16.8775 50.5136 29.2368 34.6136 31.0181C28.5511 31.69 25.3667 29.3462 24.5698 28.4712C23.7417 27.5493 23.6167 27.5025 23.3042 27.6743C22.7886 27.9556 23.1167 28.7681 23.3042 29.2525C23.7729 30.4868 25.7261 32.6743 29.0542 33.7681C31.9761 34.7212 39.0823 35.2525 47.6729 31.9243C57.3261 28.2056 64.8417 17.8462 62.6354 9.17434C60.3917 0.361837 45.7792 -2.52879 31.9636 2.37746C23.7292 5.29934 14.8261 9.89309 8.42294 15.8775C0.813569 23.0025 -0.402056 29.2056 0.0979444 31.7993C1.87919 41.0025 14.5636 47.0025 19.6386 51.44L18.9354 51.8306C16.3886 53.0962 6.71982 58.1587 4.29794 63.5025C1.56357 69.565 4.75107 73.9087 6.84169 74.5025C13.3729 76.315 20.0573 73.0493 23.6511 67.69C27.2448 62.3306 26.8073 55.3306 25.1511 52.1431C25.1354 52.0962 25.1042 52.065 25.0886 52.0181C26.9635 50.9076 28.8543 49.8241 30.7604 48.7681C30.1354 50.4556 29.6823 52.4868 29.4479 55.4243C29.1667 58.8618 30.5886 63.315 32.4323 65.065C33.2448 65.8306 34.2261 65.8462 34.8386 65.8462C36.9948 65.8462 37.9636 64.065 39.0417 61.94C40.3698 59.3462 41.5417 56.3306 41.5417 56.3306C41.5417 56.3306 40.0729 64.4868 44.0886 64.4868C45.5573 64.4868 47.0261 62.5962 47.6823 61.6275V61.6431C47.6823 61.6431 47.7136 61.5806 47.7917 61.4556C47.9479 61.2212 48.0261 61.0806 48.0261 61.0806V61.0337C48.6198 60.0181 49.9167 57.69 51.8698 53.8462C54.4011 48.8775 56.8198 42.6743 56.8198 42.6743C57.0542 44.0368 57.3792 45.3837 57.7886 46.7056C58.2261 48.19 59.1479 49.815 59.8823 51.3931C59.2886 52.2056 58.9292 52.6743 58.9292 52.6743C58.9292 52.6868 58.9354 52.6962 58.9448 52.7056C58.4761 53.3306 57.9448 54.0025 57.3979 54.6587C55.4011 57.0337 53.0229 59.7525 52.7104 60.5337C52.3354 61.4556 52.4292 62.1431 53.1479 62.6743C53.6792 63.0806 54.6167 63.1431 55.6011 63.065C57.3979 62.94 58.6636 62.5025 59.2729 62.2212C60.3969 61.8185 61.4592 61.2611 62.4292 60.565C64.3823 59.1275 65.5698 57.065 65.4604 54.3462C65.3979 52.8462 64.9136 51.3462 64.3198 49.94C64.4917 49.69 64.6792 49.4243 64.8511 49.1587C66.8844 46.1248 68.7165 42.9607 70.3354 39.6868C70.5698 41.0493 70.8917 42.3962 71.3042 43.7181C71.6792 44.9837 72.4136 46.3743 73.0854 47.7337C70.1792 50.0931 68.3823 52.8275 67.7604 54.6243C66.6042 57.9525 67.5104 59.4525 69.2136 59.7962C69.9792 59.9525 71.0729 59.5931 71.8854 59.2493C73.0917 58.8462 74.2292 58.2618 75.2573 57.515C77.2104 56.0775 79.1011 54.0618 78.9729 51.3275C78.9261 50.0931 78.5823 48.8587 78.1292 47.6712C80.5823 46.64 83.7698 46.0775 87.8323 46.5462C96.5323 47.5618 98.2354 52.9993 97.9073 55.265C97.5792 57.5306 95.7511 58.7962 95.1417 59.1712C94.5323 59.5462 94.3448 59.6868 94.3917 59.9681C94.4698 60.3743 94.7511 60.3587 95.2667 60.265C95.9854 60.14 99.8292 58.4212 100.001 54.2181C100.251 48.9056 95.1417 43.0618 86.0948 43.1087L86.0886 43.1118ZM19.0292 65.7212C16.1542 68.8618 12.1261 70.0493 10.3917 69.0493C8.53232 67.9681 9.2667 63.3462 12.8104 59.9993C14.9667 57.9681 17.7479 56.0931 19.5917 54.9368C20.0136 54.6868 20.6229 54.3118 21.3729 53.8587C21.4339 53.8197 21.4964 53.7832 21.5604 53.7493C21.7011 53.6556 21.8573 53.5775 22.0136 53.4837C23.3073 58.2337 22.0604 62.4212 19.0292 65.7181V65.7212ZM40.0229 51.44C39.0229 53.8931 36.9167 60.1431 35.6323 59.815C34.5386 59.5337 33.8667 54.7681 35.4136 50.0806C36.1948 47.7212 37.8511 44.9087 38.8354 43.815C40.4136 42.0493 42.1479 41.4868 42.5542 42.19C43.1011 43.1118 40.6479 49.9087 40.0229 51.44ZM57.3667 59.7212C56.9448 59.94 56.5542 60.0806 56.3667 59.9712C56.2261 59.8931 56.5386 59.5962 56.5386 59.5962C56.5386 59.5962 58.7104 57.2681 59.5698 56.2056C60.0698 55.5806 60.6479 54.8462 61.2729 54.0337C61.2729 54.1118 61.2886 54.19 61.2886 54.2837C61.2698 57.0806 58.5823 58.9712 57.3636 59.7212H57.3667ZM70.7417 56.6743C70.4292 56.4556 70.4761 55.7212 71.5229 53.44C71.9292 52.5493 72.8667 51.0493 74.4917 49.6118C74.6761 50.1556 74.7761 50.7243 74.7886 51.2993C74.7729 54.815 72.2573 56.1275 70.7417 56.6743V56.6743Z"
              fill="#dcccbe" fill-opacity="0.5"/>
    </g>
    <g id="react">
        <path d="M100 44.5375C100 37.9125 91.7042 31.6333 78.9833 27.7417C81.9208 14.7792 80.6167 4.4625 74.8667 1.15833C73.4734 0.378002 71.8965 -0.0147829 70.3 0.0208333V4.5625C71.2375 4.5625 71.9917 4.75 72.625 5.09583C75.3958 6.6875 76.6 12.7375 75.6625 20.525C75.4375 22.4417 75.0708 24.4583 74.6208 26.5167C70.361 25.4902 66.0375 24.7482 61.6792 24.2958C59.0827 20.7137 56.25 17.3089 53.2 14.1042C59.8458 7.92917 66.0833 4.54583 70.325 4.54583V0C64.7167 0 57.3792 3.99583 49.9583 10.925C42.5417 4.04167 35.2 0.0833333 29.5958 0.0833333V4.625C33.8167 4.625 40.075 7.99167 46.7208 14.125C43.8667 17.125 41.0125 20.525 38.3 24.2958C33.9326 24.7432 29.6015 25.4922 25.3375 26.5375C24.8667 24.5 24.5208 22.525 24.275 20.6292C23.3167 12.8375 24.5 6.7875 27.2542 5.17917C27.8625 4.8125 28.6583 4.64583 29.5958 4.64583V0.104167C27.8875 0.104167 26.3333 0.470833 24.9917 1.24167C19.2625 4.54583 17.9792 14.8375 20.9333 27.7625C8.25417 31.6792 0 37.9333 0 44.5375C0 51.1625 8.29583 57.4417 21.0167 61.3292C18.0792 74.2958 19.3833 84.6125 25.1333 87.9125C26.4583 88.6875 28.0083 89.0542 29.7167 89.0542C35.325 89.0542 42.6625 85.0583 50.0833 78.1292C57.5 85.0167 64.8375 88.9708 70.4458 88.9708C72.0546 89.0048 73.6435 88.6108 75.05 87.8292C80.7792 84.5292 82.0625 74.2375 79.1083 61.3125C91.7458 57.4208 100 51.1417 100 44.5375ZM73.4583 30.9417C72.6666 33.6661 71.7489 36.3523 70.7083 38.9917C69.0048 35.6782 67.1344 32.4532 65.1042 29.3292C68 29.7583 70.7917 30.2875 73.4625 30.9417H73.4583ZM64.125 52.65C62.5375 55.4 60.9042 58.0125 59.2125 60.4375C53.0969 60.9765 46.946 60.9835 40.8292 60.4583C37.3206 55.4466 34.2522 50.1407 31.6583 44.6C34.2483 39.0463 37.3036 33.7217 40.7917 28.6833C46.9058 28.1432 53.0553 28.1348 59.1708 28.6583C60.8625 31.0833 62.5167 33.675 64.1042 36.4083C65.6542 39.075 67.0625 41.7833 68.3458 44.5167C67.0483 47.2832 65.6402 49.9964 64.125 52.65V52.65ZM70.7083 50C71.8083 52.7292 72.75 55.4625 73.5208 58.1125C70.8542 58.7667 68.0375 59.3167 65.125 59.7417C67.1468 56.5892 69.0103 53.338 70.7083 50V50ZM50.0417 71.75C48.1458 69.7917 46.25 67.6125 44.375 65.225C46.2083 65.3083 48.0833 65.3708 49.9792 65.3708C51.8958 65.3708 53.7917 65.3292 55.6458 65.225C53.8125 67.6125 51.9167 69.7917 50.0417 71.75ZM34.875 59.7417C32.0656 59.3346 29.2765 58.7979 26.5167 58.1333C27.2708 55.5042 28.2083 52.7917 29.2667 50.0833C30.1042 51.7083 30.9833 53.3417 31.9417 54.975C32.9 56.6042 33.875 58.1958 34.875 59.7417ZM49.9375 17.325C51.8333 19.2833 53.7292 21.4625 55.6042 23.85C53.7708 23.7667 51.8958 23.7042 50 23.7042C48.0833 23.7042 46.1875 23.7458 44.3333 23.85C46.1667 21.4625 48.0625 19.2833 49.9375 17.325ZM34.8542 29.3333C32.8328 32.4789 30.9694 35.7232 29.2708 39.0542C28.2009 36.3978 27.2623 33.6903 26.4583 30.9417C29.125 30.3083 31.9417 29.7583 34.8542 29.3333ZM16.4083 54.85C9.19167 51.775 4.525 47.7375 4.525 44.5375C4.525 41.3375 9.19167 37.2792 16.4083 34.225C18.1583 33.4708 20.075 32.7958 22.0542 32.1667C23.2167 36.1583 24.7458 40.3167 26.6375 44.5792C24.8515 48.5883 23.3411 52.7145 22.1167 56.9292C20.181 56.3298 18.276 55.636 16.4083 54.85V54.85ZM27.375 83.975C24.6042 82.3917 23.4 76.3333 24.3375 68.55C24.5625 66.6333 24.9292 64.6125 25.3792 62.5542C29.3708 63.5333 33.7333 64.2875 38.3208 64.7792C40.9174 68.3612 43.7501 71.766 46.8 74.9708C40.1542 81.1458 33.9167 84.5292 29.675 84.5292C28.8748 84.5379 28.0847 84.349 27.375 83.9792V83.975ZM75.725 68.4458C76.6833 76.2333 75.5 82.2875 72.7458 83.8958C72.1375 84.2625 71.3417 84.425 70.4042 84.425C66.1833 84.425 59.925 81.0625 53.2792 74.925C56.1333 71.9333 58.9875 68.5292 61.7 64.7583C66.0674 64.311 70.3985 63.562 74.6625 62.5167C75.1333 64.575 75.4958 66.55 75.725 68.4458V68.4458ZM83.5708 54.85C81.8208 55.6042 79.9042 56.2792 77.925 56.9083C76.6791 52.6722 75.1478 48.5252 73.3417 44.4958C75.2167 40.2583 76.7208 36.1208 77.8625 32.1458C79.8833 32.775 81.7958 33.4708 83.5917 34.225C90.8083 37.3 95.475 41.3375 95.475 44.5375C95.4542 47.7375 90.7875 51.7958 83.5708 54.85V54.85Z"
              fill="#dcccbe" fill-opacity="0.5"/>
        <path d="M49.9791 53.8543C52.4501 53.8543 54.8198 52.8727 56.567 51.1255C58.3142 49.3783 59.2958 47.0085 59.2958 44.5376C59.2958 42.0667 58.3142 39.6969 56.567 37.9497C54.8198 36.2025 52.4501 35.2209 49.9791 35.2209C47.5082 35.2209 45.1385 36.2025 43.3913 37.9497C41.644 39.6969 40.6625 42.0667 40.6625 44.5376C40.6625 47.0085 41.644 49.3783 43.3913 51.1255C45.1385 52.8727 47.5082 53.8543 49.9791 53.8543V53.8543Z"
              fill="#dcccbe" fill-opacity="0.5"/>
    </g>

    <g id="vsCode">
        <path d="M0.228341 8.36915C0.228341 8.36915 -0.356212 7.94324 0.345251 7.37453L1.97956 5.89736C1.97956 5.89736 2.44721 5.40004 2.94164 5.83334L18.0231 17.375V22.9094C18.0231 22.9094 18.0158 23.7785 16.9124 23.6825L0.228341 8.36915Z"
              fill="#dcccbe" fill-opacity="0.5"/>
        <path d="M4.11555 11.9367L0.228273 15.5089C0.228273 15.5089 -0.171172 15.8093 0.228273 16.346L2.03308 18.0053C2.03308 18.0053 2.46175 18.4706 3.09502 17.9413L7.21611 14.7827L4.11555 11.9367Z"
              fill="#dcccbe" fill-opacity="0.5"/>
        <path d="M10.94 11.9661L18.0691 6.46362L18.0228 0.95865C18.0228 0.95865 17.7183 -0.242793 16.7027 0.382548L7.21589 9.11025L10.94 11.9661Z"
              fill="#dcccbe" fill-opacity="0.5"/>
        <path d="M16.9121 23.69C17.3261 24.1183 17.8279 23.978 17.8279 23.978L23.3838 21.2108C24.0951 20.7208 23.9952 20.1127 23.9952 20.1127V3.58803C23.9952 2.86175 23.2596 2.61063 23.2596 2.61063L18.4441 0.264377C17.3919 -0.392968 16.7027 0.382548 16.7027 0.382548C16.7027 0.382548 17.5892 -0.262484 18.0228 0.95865L18.0228 22.8086C18.0228 22.9588 17.9911 23.1065 17.9278 23.2394C17.8011 23.4979 17.5259 23.7392 16.8658 23.6383L16.9121 23.69Z"
              fill="#dcccbe" fill-opacity="0.5"/>
    </g>

    <g id="webStorm">
        <path d="m4.65 19.351h14.7v-14.701h-14.7zm6.9-1.726h-5.624v-.945h5.625zm4.125-11.3c.864.009 1.657.309 2.287.806l-.008-.006-.7 1.05c-.43-.345-.973-.566-1.567-.6h-.007c-.5 0-.8.225-.8.57 0 .4.271.555 1.319.81 1.231.345 1.951.8 1.951 1.875-.007 1.089-.89 1.968-1.98 1.968-.095 0-.189-.007-.281-.02l.011.001c-1.005-.036-1.917-.409-2.632-1.01l.007.005.779-.976c.487.445 1.132.726 1.841.75h.005c.555 0 .9-.225.9-.6 0-.346-.227-.525-1.23-.8-1.246-.33-2.04-.676-2.04-1.9v-.044c.026-1.048.881-1.887 1.932-1.887.075 0 .149.004.222.013l-.009-.001zm-8.625.12.944 3.6 1.05-3.6h1.056l1.051 3.6.929-3.6h1.471l-1.8 6.225h-1.176l-1-3.6-1.02 3.6h-1.155l-1.805-6.22z"
              fill="#dcccbe" fill-opacity="0.5"/>
        <path d="m24 8.13-1.919-4.755-1.201-2.875-5.58-.5-.87.84-1.11-.42-3.52 1.88-3.8-2.255-6 2.46 3.225 19.171 13.275 2.324.84-4.26.15-.091h-13.14v-15.299h15.3v14.025l4.35-2.575-2.625-4.92z"
              fill="#dcccbe" fill-opacity="0.5"/>
    </g>

    <g id="js">
        <path display="inline" fill-rule="evenodd" clip-rule="evenodd" d="M1.008,0.5C0.438,0.583,0.48,1.27,0.521,1.958
		c0,169.668,0,339.31,0,508.974c169.364,1.135,340.808,0.162,510.979,0.486c0-170.309,0-340.61,0-510.918
		C341.342,0.5,171.167,0.5,1.008,0.5z M259.893,452.167c-11.822,11.919-30.478,18.938-53.429,18.938
		c-37.643,0-58.543-18.34-71.884-43.711c12.842-8.2,25.966-16.122,39.344-23.795c5.456,15.262,23.886,32.42,44.683,21.857
		c13.183-6.699,11.661-27.01,11.661-49.054c0-45.773,0-98.578,0-139.872c-0.042-0.688-0.083-1.375,0.482-1.458
		c15.707,0,31.413,0,47.116,0c0,36.788,0,78.402,0,117.529C277.866,395.199,280.91,430.988,259.893,452.167z M470.696,409.917
		c-2.674,39.884-35.243,61.063-79.17,61.188c-43.062,0.124-70.624-19.013-87.433-48.567c12.085-8.317,25.778-15.017,38.375-22.822
		c10.08,15.761,27.537,30.91,53.429,28.652c16.131-1.406,34.856-14.555,24.285-34.482c-5.127-9.66-17.516-14.567-28.656-19.425
		c-35.352-15.424-76.828-29.571-72.861-84.992c1.327-18.514,9.852-31.525,20.889-40.796c11.311-9.5,26.46-15.867,46.629-16.511
		c36.629-1.173,56.723,15.12,70.429,37.884c-11.664,8.891-24.514,16.608-37.401,24.281c-4.229-12.995-24.644-25.658-41.772-17.969
		c-7.789,3.493-14.788,13.761-10.684,26.224c3.66,11.115,18.589,17.199,30.599,22.344
		C433.706,340.486,474.331,355.693,470.696,409.917z" fill="#dcccbe" fill-opacity="0.5"/>
    </g>

    <g id="ts">
        <path fill-rule="evenodd" clip-rule="evenodd"
              d="M0 0H15V15H0V0ZM10 6C8.89543 6 8 6.89543 8 8C8 9.10457 8.89543 10 10 10H11C11.5523 10 12 10.4477 12 11C12 11.5523 11.5523 12 11 12H10C9.44772 12 9 11.5523 9 11H8C8 12.1046 8.89543 13 10 13H11C12.1046 13 13 12.1046 13 11C13 9.89543 12.1046 9 11 9H10C9.44772 9 9 8.55228 9 8C9 7.44772 9.44772 7 10 7H11.1667C11.6269 7 12 7.3731 12 7.83333V8H13V7.83333C13 6.82081 12.1792 6 11.1667 6H10ZM3 6H8V7H6V13H5V7H3V6Z"
              fill="#dcccbe" fill-opacity="0.5"/>
    </g>

    <!-- experience -->
    <g id="computer">
        <path fill-rule="evenodd" clip-rule="evenodd"
              d="M0 2.95C0 2.16761 0.31607 1.41727 0.87868 0.864035C1.44129 0.310803 2.20435 0 3 0H18C18.7956 0 19.5587 0.310803 20.1213 0.864035C20.6839 1.41727 21 2.16761 21 2.95V14.75C21 15.5324 20.6839 16.2827 20.1213 16.836C19.5587 17.3892 18.7956 17.7 18 17.7H14.67L14.8545 18.4213L16.0605 19.6072C16.2702 19.8135 16.413 20.0762 16.4709 20.3623C16.5287 20.6484 16.499 20.9449 16.3855 21.2144C16.272 21.4839 16.0798 21.7142 15.8332 21.8763C15.5866 22.0384 15.2966 22.1249 15 22.125H6C5.70337 22.1249 5.41343 22.0384 5.16681 21.8763C4.9202 21.7142 4.72799 21.4839 4.61448 21.2144C4.50098 20.9449 4.47127 20.6484 4.52912 20.3623C4.58698 20.0762 4.72979 19.8135 4.9395 19.6072L6.1455 18.4213L6.33 17.7H3C2.20435 17.7 1.44129 17.3892 0.87868 16.836C0.31607 16.2827 0 15.5324 0 14.75V2.95ZM8.6565 13.275H3V2.95H18V13.275H8.6565Z"
              fill="#dcccbe"/>
    </g>
    <g id="paint">
        <path fill-rule="evenodd" clip-rule="evenodd"
              d="M23.0127 20.0014C24.5787 14.2548 20.8707 8.31941 14.7792 6.71461C7.90018 4.90036 -1.86332 9.61151 0.308676 15.6546C1.02868 17.6532 2.41468 18.1208 5.02918 18.1577L5.19268 18.1606C6.57418 18.1768 6.96268 18.2653 7.07968 18.4512C7.27018 18.758 7.27318 19.2462 7.05868 20.5899C6.95668 21.2242 6.92367 21.4454 6.88467 21.7921C6.64617 23.9028 7.00917 25.5489 8.41467 27.0386C12.8067 31.6893 21.2442 26.4885 23.0127 20.0014V20.0014ZM3.13768 14.6693C2.04418 11.6308 9.04168 8.25451 14.0022 9.56136C18.5277 10.7546 21.2412 15.0985 20.1147 19.2359C18.8577 23.8497 12.9417 27.4959 10.6137 25.0297C9.89367 24.2686 9.71517 23.4544 9.86667 22.1166C9.89817 21.8304 9.92817 21.6328 10.0227 21.0457C10.3512 18.9851 10.3467 18.0441 9.63567 16.9069C8.74468 15.4805 7.68567 15.2401 5.23017 15.2091L5.07117 15.2062C3.62518 15.187 3.28168 15.0705 3.13618 14.6693H3.13768Z"
              fill="#dcccbe"/>
        <path d="M7.68271 14.1663C7.18543 14.1663 6.70851 13.972 6.35688 13.6262C6.00525 13.2805 5.80771 12.8115 5.80771 12.3225C5.80771 11.8335 6.00525 11.3646 6.35688 11.0188C6.70851 10.673 7.18543 10.4788 7.68271 10.4788C8.17999 10.4788 8.6569 10.673 9.00853 11.0188C9.36016 11.3646 9.55771 11.8335 9.55771 12.3225C9.55771 12.8115 9.36016 13.2805 9.00853 13.6262C8.6569 13.972 8.17999 14.1663 7.68271 14.1663V14.1663Z"
              fill="#dcccbe"/>
        <path d="M13.3077 14.1663C12.8104 14.1663 12.3335 13.972 11.9819 13.6262C11.6303 13.2805 11.4327 12.8115 11.4327 12.3225C11.4327 11.8335 11.6303 11.3646 11.9819 11.0188C12.3335 10.673 12.8104 10.4788 13.3077 10.4788C13.805 10.4788 14.2819 10.673 14.6335 11.0188C14.9852 11.3646 15.1827 11.8335 15.1827 12.3225C15.1827 12.8115 14.9852 13.2805 14.6335 13.6262C14.2819 13.972 13.805 14.1663 13.3077 14.1663Z"
              fill="#dcccbe"/>
        <path d="M17.0577 18.5913C16.5604 18.5913 16.0835 18.3971 15.7319 18.0513C15.3803 17.7055 15.1827 17.2366 15.1827 16.7476C15.1827 16.2586 15.3803 15.7896 15.7319 15.4438C16.0835 15.0981 16.5604 14.9038 17.0577 14.9038C17.555 14.9038 18.0319 15.0981 18.3835 15.4438C18.7352 15.7896 18.9327 16.2586 18.9327 16.7476C18.9327 17.2366 18.7352 17.7055 18.3835 18.0513C18.0319 18.3971 17.555 18.5913 17.0577 18.5913Z"
              fill="#dcccbe"/>
        <path d="M14.8077 23.7538C14.3104 23.7538 13.8335 23.5595 13.4819 23.2138C13.1303 22.868 12.9327 22.399 12.9327 21.91C12.9327 21.421 13.1303 20.9521 13.4819 20.6063C13.8335 20.2605 14.3104 20.0663 14.8077 20.0663C15.305 20.0663 15.7819 20.2605 16.1335 20.6063C16.4852 20.9521 16.6827 21.421 16.6827 21.91C16.6827 22.399 16.4852 22.868 16.1335 23.2138C15.7819 23.5595 15.305 23.7538 14.8077 23.7538V23.7538Z"
              fill="#dcccbe"/>
        <path d="M20.2377 4.7338C20.4156 4.6401 20.6108 4.58265 20.8118 4.56488C21.0127 4.54712 21.2153 4.56941 21.4073 4.63041C21.5993 4.69142 21.7768 4.78989 21.9292 4.91993C22.0816 5.04997 22.2057 5.2089 22.2942 5.38723L28.4337 17.7772C28.5362 17.9999 28.5486 18.2527 28.4684 18.4841C28.3882 18.7154 28.2214 18.9081 28.0019 19.0229C27.7824 19.1377 27.5267 19.1659 27.2868 19.102C27.0468 19.038 26.8407 18.8865 26.7102 18.6785L19.6482 6.7752C19.5467 6.60397 19.4814 6.41434 19.4562 6.21768C19.431 6.02103 19.4465 5.8214 19.5017 5.63076C19.5569 5.44013 19.6507 5.26242 19.7774 5.10829C19.9041 4.95416 20.0612 4.82678 20.2392 4.7338H20.2377Z"
              fill="#dcccbe"/>
        <path fill-rule="evenodd" clip-rule="evenodd"
              d="M17.4881 4.55525C18.2186 5.90487 19.4471 6.28247 20.6351 5.6615C21.8216 5.042 22.1921 3.82807 21.4616 2.47845C20.6276 0.932648 18.8396 -0.468602 17.6546 0.149423C16.4696 0.768923 16.6526 3.00945 17.4896 4.55525H17.4881ZM18.8126 3.862C18.547 3.33754 18.3842 2.76861 18.3326 2.18492C18.3103 1.94091 18.3194 1.6951 18.3596 1.45332L18.3866 1.4666C18.4616 1.502 18.6941 1.6082 18.9911 1.84125C19.4441 2.19672 19.8941 2.72035 20.1371 3.17022C20.4806 3.80447 20.3831 4.12307 19.9301 4.36055C19.4801 4.59655 19.1561 4.49625 18.8126 3.86347V3.862Z"
              fill="#dcccbe"/>
    </g>
    <g id="thunder">
        <path d="M18.1153 2.97035C18.7665 2.16033 18.1528 1 17.0703 1H8.67529C8.20654 1 7.77279 1.236 7.53904 1.61704L1.18654 12.0109C0.685291 12.8295 1.31529 13.8509 2.32154 13.8509H6.60779L2.57029 23.7642C1.98654 25.0179 3.56404 26.1647 4.62404 25.2576L21.0103 10.011H12.449L18.1153 2.97035V2.97035Z"
              stroke="#dcccbe" stroke-width="2" stroke-linecap="round" stroke-linejoin="round"/>
    </g>

    <!-- quote -->
    <g id="comma">
        <path d="M29.9 27.7999C26.6333 27.7999 24.2667 26.6333 22.8 24.2999C22.1333 23.2999 21.6 22.0666 21.2 20.5999C20.8 19.1333 20.6 17.5999 20.6 15.9999C20.6 12.5333 21.4667 9.39995 23.2 6.59995C25 3.79995 27.6333 1.59995 31.1 -5.45979e-05L32 1.79995C30.0667 2.59995 28.3667 3.83328 26.9 5.49995C25.5 7.16662 24.6667 8.86662 24.4 10.5999C24.2 11.3999 24.1 12.1666 24.1 12.8999C24.1 13.5666 24.2 14.1999 24.4 14.7999C25.8667 13.1999 27.8 12.3999 30.2 12.3999C32.5333 12.3999 34.4333 13.0999 35.9 14.4999C37.3667 15.8333 38.1 17.6999 38.1 20.0999C38.1 22.3666 37.3333 24.2333 35.8 25.6999C34.2667 27.0999 32.3 27.7999 29.9 27.7999ZM9.3 27.7999C6.03333 27.7999 3.66667 26.6333 2.2 24.2999C1.53333 23.2999 0.999999 22.0666 0.599999 20.5999C0.199999 19.1333 -1.17719e-06 17.5999 -1.17719e-06 15.9999C-1.17719e-06 12.5333 0.866665 9.39995 2.6 6.59995C4.4 3.79995 7.03333 1.59995 10.5 -5.45979e-05L11.4 1.79995C9.46667 2.59995 7.76667 3.83328 6.3 5.49995C4.9 7.16662 4.06667 8.86662 3.8 10.5999C3.6 11.3999 3.5 12.1666 3.5 12.8999C3.5 13.5666 3.6 14.1999 3.8 14.7999C5.26667 13.1999 7.2 12.3999 9.6 12.3999C11.9333 12.3999 13.8333 13.0999 15.3 14.4999C16.7667 15.8333 17.5 17.6999 17.5 20.0999C17.5 22.3666 16.7333 24.2333 15.2 25.6999C13.6667 27.0999 11.7 27.7999 9.3 27.7999Z"
              fill="#C4C4C4"/>
    </g>

    <!-- arrow -->
    <g id="arrowLeft">
        <path d="M27.6667 12.6666L0.999999 12.6666" stroke-width="2"
              stroke-linecap="round" stroke-linejoin="round"/>
        <path d="M12.6667 24.3333L1 12.6666L12.6667 0.999977" stroke-width="2"
              stroke-linecap="round" stroke-linejoin="round"/>
    </g>
    <g id="arrowRight">
        <path d="M1 12.6667H27.6667" stroke-width="2" stroke-linecap="round" stroke-linejoin="round"/>
        <path d="M16 1L27.6667 12.6667L16 24.3333" stroke-width="2" stroke-linecap="round"
              stroke-linejoin="round"/>
    </g>

    <!-- social -->
    <g id="dribble">
        <path d="M21.8333 11.4167C21.8351 12.7887 21.5649 14.1475 21.0385 15.4145C20.512 16.6815 19.7397 17.8317 18.7662 18.7984C17.8006 19.7623 16.6545 20.5265 15.3934 21.0472C14.1324 21.568 12.781 21.8351 11.4167 21.8333C5.66355 21.8333 1.00001 17.1698 1.00001 11.4167C0.996367 8.74572 2.02234 6.17613 3.86459 4.2422C4.83665 3.21647 6.00778 2.39987 7.30633 1.8424C8.60487 1.28492 10.0035 0.998273 11.4167 1.00001C12.781 0.998242 14.1324 1.26536 15.3934 1.78611C16.6545 2.30685 17.8006 3.07101 18.7662 4.0349C19.7397 5.00169 20.512 6.15182 21.0385 7.41884C21.5649 8.68585 21.8351 10.0446 21.8333 11.4167V11.4167Z"
              stroke-width="2" stroke-linecap="round" stroke-linejoin="round"/>
        <path d="M21.8333 11.4167C20.3135 11.4167 16.1208 10.8437 12.3682 12.4911C8.29167 14.2812 5.34011 17.0578 4.05365 18.7849"
              stroke-width="2" stroke-linecap="round" stroke-linejoin="round"/>
        <path d="M7.51044 1.75729C9.14065 3.26198 12.6979 7.09323 14.0209 10.8958C15.3438 14.699 15.8334 19.375 16.1354 20.7057"
              stroke-width="2" stroke-linecap="round" stroke-linejoin="round"/>
        <path d="M1.08023 10.1146C3.04794 10.2333 8.25679 10.3401 11.5901 8.91668C14.9235 7.49324 17.7917 4.87501 18.7755 4.04428"
              stroke-width="2" stroke-linecap="round" stroke-linejoin="round"/>
        <path d="M1.78125 15.3818C2.69912 17.6036 4.35453 19.4413 6.46875 20.5854" stroke-width="2"
              stroke-linecap="round" stroke-linejoin="round"/>
        <path d="M1.00001 11.4167C0.996367 8.74571 2.02234 6.17612 3.86459 4.24219" stroke-width="2"
              stroke-linecap="round" stroke-linejoin="round"/>
        <path d="M11.4167 1.00001C10.0035 0.998272 8.60488 1.28491 7.30633 1.84239C6.00778 2.39987 4.83665 3.21647 3.86459 4.2422"
              stroke-width="2" stroke-linecap="round" stroke-linejoin="round"/>
        <path d="M15.5833 1.86667C16.7696 2.3857 17.8489 3.12096 18.7662 4.0349C19.7397 5.00168 20.512 6.15181 21.0385 7.41883C21.565 8.68585 21.8351 10.0446 21.8333 11.4167C21.8333 12.6995 21.6016 13.9276 21.1771 15.0625"
              stroke-width="2" stroke-linecap="round" stroke-linejoin="round"/>
        <path d="M11.4167 21.8334C12.781 21.8351 14.1324 21.568 15.3934 21.0473C16.6545 20.5265 17.8006 19.7624 18.7662 18.7985"
              stroke-width="2" stroke-linecap="round" stroke-linejoin="round"/>
    </g>
    <g id="github">
        <path fill-rule="evenodd" clip-rule="evenodd"
              d="M12.5 0C5.59375 0 0 5.59375 0 12.5C0 18.0312 3.57812 22.7031 8.54687 24.3594C9.17187 24.4687 9.40625 24.0937 9.40625 23.7656C9.40625 23.4687 9.39062 22.4844 9.39062 21.4375C6.25 22.0156 5.4375 20.6719 5.1875 19.9687C5.04687 19.6094 4.4375 18.5 3.90625 18.2031C3.46875 17.9687 2.84375 17.3906 3.89062 17.375C4.875 17.3594 5.57812 18.2812 5.8125 18.6562C6.9375 20.5469 8.73437 20.0156 9.45312 19.6875C9.5625 18.875 9.89062 18.3281 10.25 18.0156C7.46875 17.7031 4.5625 16.625 4.5625 11.8437C4.5625 10.4844 5.04687 9.35938 5.84375 8.48438C5.71875 8.17188 5.28125 6.89062 5.96875 5.17187C5.96875 5.17187 7.01562 4.84375 9.40625 6.45312C10.4062 6.17187 11.4687 6.03125 12.5312 6.03125C13.5937 6.03125 14.6562 6.17187 15.6562 6.45312C18.0469 4.82813 19.0937 5.17187 19.0937 5.17187C19.7812 6.89062 19.3438 8.17188 19.2188 8.48438C20.0156 9.35938 20.5 10.4687 20.5 11.8437C20.5 16.6406 17.5781 17.7031 14.7969 18.0156C15.25 18.4062 15.6406 19.1562 15.6406 20.3281C15.6406 22 15.625 23.3437 15.625 23.7656C15.625 24.0937 15.8594 24.4844 16.4844 24.3594C18.9658 23.5216 21.1221 21.9268 22.6496 19.7993C24.1772 17.6719 24.9993 15.119 25 12.5C25 5.59375 19.4062 0 12.5 0Z"
        />
    </g>
    <g id="linkedin">
        <path fill-rule="evenodd" clip-rule="evenodd"
              d="M2.83395e-07 1.91459C2.83395e-07 1.40681 0.201715 0.919825 0.560769 0.560771C0.919823 0.201717 1.4068 2.55241e-06 1.91458 2.55241e-06H21C21.2516 -0.000408439 21.5009 0.0488181 21.7335 0.144864C21.9661 0.240909 22.1774 0.381888 22.3555 0.559728C22.5335 0.737568 22.6747 0.948777 22.771 1.18126C22.8673 1.41375 22.9168 1.66295 22.9167 1.91459V21C22.9169 21.2517 22.8676 21.501 22.7714 21.7336C22.6753 21.9662 22.5342 22.1775 22.3563 22.3555C22.1783 22.5336 21.9671 22.6747 21.7345 22.771C21.502 22.8673 21.2527 22.9168 21.001 22.9167H1.91458C1.66307 22.9167 1.41402 22.8671 1.18166 22.7708C0.949308 22.6745 0.738199 22.5334 0.5604 22.3555C0.382601 22.1776 0.241596 21.9665 0.14544 21.734C0.0492847 21.5016 -0.000136558 21.2526 2.83395e-07 21.001V1.91459ZM9.07083 8.7375H12.174V10.2958C12.6219 9.4 13.7677 8.59375 15.4896 8.59375C18.7906 8.59375 19.5729 10.3781 19.5729 13.6521V19.7167H16.2323V14.3979C16.2323 12.5333 15.7844 11.4813 14.6469 11.4813C13.0688 11.4813 12.4125 12.6156 12.4125 14.3979V19.7167H9.07083V8.7375ZM3.34167 19.574H6.68333V8.59375H3.34167V19.5729V19.574ZM7.16146 5.0125C7.16776 5.29862 7.11685 5.58311 7.01171 5.84929C6.90657 6.11546 6.74933 6.35796 6.5492 6.56254C6.34908 6.76712 6.1101 6.92966 5.84631 7.04063C5.58251 7.15161 5.29921 7.20877 5.01302 7.20877C4.72683 7.20877 4.44353 7.15161 4.17974 7.04063C3.91594 6.92966 3.67697 6.76712 3.47684 6.56254C3.27672 6.35796 3.11947 6.11546 3.01433 5.84929C2.9092 5.58311 2.85828 5.29862 2.86458 5.0125C2.87695 4.45089 3.10873 3.91645 3.5103 3.52363C3.91186 3.13082 4.45128 2.91085 5.01302 2.91085C5.57477 2.91085 6.11418 3.13082 6.51575 3.52363C6.91731 3.91645 7.14909 4.45089 7.16146 5.0125V5.0125Z"
        />
    </g>
    <g id="upwork">
        <path d="M19.3359 10.0664C18.1883 10.0664 17.1102 9.58203 16.1336 8.78906L16.3695 7.67031L16.3773 7.62578C16.593 6.4375 17.2602 4.43984 19.3352 4.43984C20.0818 4.44005 20.7979 4.73676 21.3259 5.26475C21.8539 5.79274 22.1506 6.50878 22.1508 7.25547C22.1495 8.00148 21.8524 8.71652 21.3245 9.24366C20.7966 9.77081 20.0812 10.067 19.3352 10.0672L19.3359 10.0664ZM19.3359 1.59062C16.6914 1.59062 14.6359 3.30781 13.8023 6.13594C12.5328 4.22734 11.5641 1.93281 11.0031 0H8.15469V7.40937C8.15324 8.11258 7.87325 8.78658 7.37601 9.28382C6.87876 9.78107 6.20477 10.0611 5.50156 10.0625C4.79854 10.0604 4.12491 9.78025 3.6278 9.28314C3.13069 8.78603 2.8505 8.11239 2.84844 7.40937V0H0V7.40937C0 10.4445 2.46953 12.9313 5.50156 12.9313C8.53672 12.9313 11.0031 10.4453 11.0031 7.40937V6.16797C11.5562 7.31953 12.2359 8.49141 13.0617 9.525L11.3164 17.7242H14.2297L15.4953 11.775C16.6023 12.4828 17.8758 12.9305 19.3367 12.9305C22.4617 12.9305 25.0008 10.375 25.0008 7.25391C25.0008 4.12891 22.4617 1.58984 19.3367 1.58984L19.3359 1.59062Z"
        />
    </g>
    <g id="youtube">
        <path d="M24.4798 2.61662C24.3383 2.11166 24.0625 1.65448 23.6819 1.29371C23.2905 0.921836 22.8109 0.655828 22.2881 0.52079C20.3319 0.00516539 12.4944 0.00516551 12.4944 0.00516551C9.22703 -0.0320088 5.96047 0.131493 2.71314 0.494749C2.19042 0.639762 1.71165 0.911714 1.31939 1.28642C0.933976 1.65725 0.65481 2.11454 0.508976 2.61558C0.158656 4.50282 -0.0115529 6.41907 0.000642899 8.3385C-0.0118571 10.2562 0.157935 12.1718 0.508976 14.0614C0.651685 14.5604 0.92981 15.0156 1.31627 15.3833C1.70273 15.751 2.18398 16.0166 2.71314 16.1573C4.69544 16.6718 12.4944 16.6718 12.4944 16.6718C15.7659 16.7091 19.0366 16.5456 22.2881 16.1823C22.8109 16.0472 23.2905 15.7812 23.6819 15.4093C24.0673 15.0416 24.3413 14.5843 24.4788 14.0864C24.8382 12.1999 25.013 10.2829 25.0006 8.36246C25.0277 6.43392 24.8531 4.50784 24.4798 2.61558V2.61662ZM10.0027 11.9052V4.77287L16.5236 8.33954L10.0027 11.9052Z"
        />
    </g>
</svg>
