<svg width="39" height="28" viewBox="0 0 39 28" fill="none" xmlns="http://www.w3.org/2000/svg">
<path d="M29.9 27.7999C26.6333 27.7999 24.2667 26.6333 22.8 24.2999C22.1333 23.2999 21.6 22.0666 21.2 20.5999C20.8 19.1333 20.6 17.5999 20.6 15.9999C20.6 12.5333 21.4667 9.39995 23.2 6.59995C25 3.79995 27.6333 1.59995 31.1 -5.45979e-05L32 1.79995C30.0667 2.59995 28.3667 3.83328 26.9 5.49995C25.5 7.16662 24.6667 8.86662 24.4 10.5999C24.2 11.3999 24.1 12.1666 24.1 12.8999C24.1 13.5666 24.2 14.1999 24.4 14.7999C25.8667 13.1999 27.8 12.3999 30.2 12.3999C32.5333 12.3999 34.4333 13.0999 35.9 14.4999C37.3667 15.8333 38.1 17.6999 38.1 20.0999C38.1 22.3666 37.3333 24.2333 35.8 25.6999C34.2667 27.0999 32.3 27.7999 29.9 27.7999ZM9.3 27.7999C6.03333 27.7999 3.66667 26.6333 2.2 24.2999C1.53333 23.2999 0.999999 22.0666 0.599999 20.5999C0.199999 19.1333 -1.17719e-06 17.5999 -1.17719e-06 15.9999C-1.17719e-06 12.5333 0.866665 9.39995 2.6 6.59995C4.4 3.79995 7.03333 1.59995 10.5 -5.45979e-05L11.4 1.79995C9.46667 2.59995 7.76667 3.83328 6.3 5.49995C4.9 7.16662 4.06667 8.86662 3.8 10.5999C3.6 11.3999 3.5 12.1666 3.5 12.8999C3.5 13.5666 3.6 14.1999 3.8 14.7999C5.26667 13.1999 7.2 12.3999 9.6 12.3999C11.9333 12.3999 13.8333 13.0999 15.3 14.4999C16.7667 15.8333 17.5 17.6999 17.5 20.0999C17.5 22.3666 16.7333 24.2333 15.2 25.6999C13.6667 27.0999 11.7 27.7999 9.3 27.7999Z" fill="#C4C4C4"/>
</svg>
