<svg width="21" height="23" viewBox="0 0 21 23" fill="none" xmlns="http://www.w3.org/2000/svg">
<path fill-rule="evenodd" clip-rule="evenodd" d="M0 2.95C0 2.16761 0.31607 1.41727 0.87868 0.864035C1.44129 0.310803 2.20435 0 3 0H18C18.7956 0 19.5587 0.310803 20.1213 0.864035C20.6839 1.41727 21 2.16761 21 2.95V14.75C21 15.5324 20.6839 16.2827 20.1213 16.836C19.5587 17.3892 18.7956 17.7 18 17.7H14.67L14.8545 18.4213L16.0605 19.6072C16.2702 19.8135 16.413 20.0762 16.4709 20.3623C16.5287 20.6484 16.499 20.9449 16.3855 21.2144C16.272 21.4839 16.0798 21.7142 15.8332 21.8763C15.5866 22.0384 15.2966 22.1249 15 22.125H6C5.70337 22.1249 5.41343 22.0384 5.16681 21.8763C4.9202 21.7142 4.72799 21.4839 4.61448 21.2144C4.50098 20.9449 4.47127 20.6484 4.52912 20.3623C4.58698 20.0762 4.72979 19.8135 4.9395 19.6072L6.1455 18.4213L6.33 17.7H3C2.20435 17.7 1.44129 17.3892 0.87868 16.836C0.31607 16.2827 0 15.5324 0 14.75V2.95ZM8.6565 13.275H3V2.95H18V13.275H8.6565Z" fill="white"/>
</svg>
