<svg width="12" height="9" viewBox="0 0 12 9" fill="none" xmlns="http://www.w3.org/2000/svg">
<path d="M3.33341 5C3.1566 5 2.98703 4.94732 2.86201 4.85355C2.73699 4.75979 2.66675 4.63261 2.66675 4.5C2.66675 4.36739 2.73699 4.24021 2.86201 4.14645C2.98703 4.05268 3.1566 4 3.33341 4C3.51023 4 3.67979 4.05268 3.80482 4.14645C3.92984 4.24021 4.00008 4.36739 4.00008 4.5C4.00008 4.63261 3.92984 4.75979 3.80482 4.85355C3.67979 4.94732 3.51023 5 3.33341 5ZM3.33341 7C3.1566 7 2.98703 6.94732 2.86201 6.85355C2.73699 6.75979 2.66675 6.63261 2.66675 6.5C2.66675 6.36739 2.73699 6.24021 2.86201 6.14645C2.98703 6.05268 3.1566 6 3.33341 6C3.51023 6 3.67979 6.05268 3.80482 6.14645C3.92984 6.24021 4.00008 6.36739 4.00008 6.5C4.00008 6.63261 3.92984 6.75979 3.80482 6.85355C3.67979 6.94732 3.51023 7 3.33341 7ZM5.33341 6.5C5.33341 6.63261 5.40365 6.75979 5.52868 6.85355C5.6537 6.94732 5.82327 7 6.00008 7C6.17689 7 6.34646 6.94732 6.47149 6.85355C6.59651 6.75979 6.66675 6.63261 6.66675 6.5C6.66675 6.36739 6.59651 6.24021 6.47149 6.14645C6.34646 6.05268 6.17689 6 6.00008 6C5.82327 6 5.6537 6.05268 5.52868 6.14645C5.40365 6.24021 5.33341 6.36739 5.33341 6.5ZM8.66675 7C8.48994 7 8.32037 6.94732 8.19534 6.85355C8.07032 6.75979 8.00008 6.63261 8.00008 6.5C8.00008 6.36739 8.07032 6.24021 8.19534 6.14645C8.32037 6.05268 8.48994 6 8.66675 6C8.84356 6 9.01313 6.05268 9.13815 6.14645C9.26318 6.24021 9.33341 6.36739 9.33341 6.5C9.33341 6.63261 9.26318 6.75979 9.13815 6.85355C9.01313 6.94732 8.84356 7 8.66675 7ZM5.33341 4.5C5.33341 4.63261 5.40365 4.75979 5.52868 4.85355C5.6537 4.94732 5.82327 5 6.00008 5C6.17689 5 6.34646 4.94732 6.47149 4.85355C6.59651 4.75979 6.66675 4.63261 6.66675 4.5C6.66675 4.36739 6.59651 4.24021 6.47149 4.14645C6.34646 4.05268 6.17689 4 6.00008 4C5.82327 4 5.6537 4.05268 5.52868 4.14645C5.40365 4.24021 5.33341 4.36739 5.33341 4.5ZM8.66675 5C8.48994 5 8.32037 4.94732 8.19534 4.85355C8.07032 4.75979 8.00008 4.63261 8.00008 4.5C8.00008 4.36739 8.07032 4.24021 8.19534 4.14645C8.32037 4.05268 8.48994 4 8.66675 4C8.84356 4 9.01313 4.05268 9.13815 4.14645C9.26318 4.24021 9.33341 4.36739 9.33341 4.5C9.33341 4.63261 9.26318 4.75979 9.13815 4.85355C9.01313 4.94732 8.84356 5 8.66675 5ZM3.33341 2C3.1566 2 2.98703 2.05268 2.86201 2.14645C2.73699 2.24021 2.66675 2.36739 2.66675 2.5C2.66675 2.63261 2.73699 2.75979 2.86201 2.85355C2.98703 2.94732 3.1566 3 3.33341 3H8.66675C8.84356 3 9.01313 2.94732 9.13815 2.85355C9.26318 2.75979 9.33341 2.63261 9.33341 2.5C9.33341 2.36739 9.26318 2.24021 9.13815 2.14645C9.01313 2.05268 8.84356 2 8.66675 2H3.33341Z" fill="#A7A7A7"/>
<path fill-rule="evenodd" clip-rule="evenodd" d="M2 0C1.46957 0 0.960859 0.158035 0.585787 0.43934C0.210714 0.720644 0 1.10218 0 1.5V7.5C0 7.89782 0.210714 8.27936 0.585787 8.56066C0.960859 8.84196 1.46957 9 2 9H10C10.5304 9 11.0391 8.84196 11.4142 8.56066C11.7893 8.27936 12 7.89782 12 7.5V1.5C12 1.10218 11.7893 0.720644 11.4142 0.43934C11.0391 0.158035 10.5304 0 10 0H2ZM10 1H2C1.82319 1 1.65362 1.05268 1.5286 1.14645C1.40357 1.24021 1.33333 1.36739 1.33333 1.5V7.5C1.33333 7.63261 1.40357 7.75979 1.5286 7.85355C1.65362 7.94732 1.82319 8 2 8H10C10.1768 8 10.3464 7.94732 10.4714 7.85355C10.5964 7.75979 10.6667 7.63261 10.6667 7.5V1.5C10.6667 1.36739 10.5964 1.24021 10.4714 1.14645C10.3464 1.05268 10.1768 1 10 1Z" fill="#A7A7A7"/>
</svg>
