<svg width="23" height="23" viewBox="0 0 23 23" fill="none" xmlns="http://www.w3.org/2000/svg">
<path d="M21.8333 11.4167C21.8351 12.7887 21.5649 14.1475 21.0385 15.4145C20.512 16.6815 19.7397 17.8317 18.7662 18.7984C17.8006 19.7623 16.6545 20.5265 15.3934 21.0472C14.1324 21.568 12.781 21.8351 11.4167 21.8333C5.66355 21.8333 1.00001 17.1698 1.00001 11.4167C0.996367 8.74572 2.02234 6.17613 3.86459 4.2422C4.83665 3.21647 6.00778 2.39987 7.30633 1.8424C8.60487 1.28492 10.0035 0.998273 11.4167 1.00001C12.781 0.998242 14.1324 1.26536 15.3934 1.78611C16.6545 2.30685 17.8006 3.07101 18.7662 4.0349C19.7397 5.00169 20.512 6.15182 21.0385 7.41884C21.5649 8.68585 21.8351 10.0446 21.8333 11.4167V11.4167Z" stroke="white" stroke-width="2" stroke-linecap="round" stroke-linejoin="round"/>
<path d="M21.8333 11.4167C20.3135 11.4167 16.1208 10.8437 12.3682 12.4911C8.29167 14.2812 5.34011 17.0578 4.05365 18.7849" stroke="white" stroke-width="2" stroke-linecap="round" stroke-linejoin="round"/>
<path d="M7.51044 1.75729C9.14065 3.26198 12.6979 7.09323 14.0209 10.8958C15.3438 14.699 15.8334 19.375 16.1354 20.7057" stroke="white" stroke-width="2" stroke-linecap="round" stroke-linejoin="round"/>
<path d="M1.08023 10.1146C3.04794 10.2333 8.25679 10.3401 11.5901 8.91668C14.9235 7.49324 17.7917 4.87501 18.7755 4.04428" stroke="white" stroke-width="2" stroke-linecap="round" stroke-linejoin="round"/>
<path d="M1.78125 15.3818C2.69912 17.6036 4.35453 19.4413 6.46875 20.5854" stroke="white" stroke-width="2" stroke-linecap="round" stroke-linejoin="round"/>
<path d="M1.00001 11.4167C0.996367 8.74571 2.02234 6.17612 3.86459 4.24219" stroke="white" stroke-width="2" stroke-linecap="round" stroke-linejoin="round"/>
<path d="M11.4167 1.00001C10.0035 0.998272 8.60488 1.28491 7.30633 1.84239C6.00778 2.39987 4.83665 3.21647 3.86459 4.2422" stroke="white" stroke-width="2" stroke-linecap="round" stroke-linejoin="round"/>
<path d="M15.5833 1.86667C16.7696 2.3857 17.8489 3.12096 18.7662 4.0349C19.7397 5.00168 20.512 6.15181 21.0385 7.41883C21.565 8.68585 21.8351 10.0446 21.8333 11.4167C21.8333 12.6995 21.6016 13.9276 21.1771 15.0625" stroke="white" stroke-width="2" stroke-linecap="round" stroke-linejoin="round"/>
<path d="M11.4167 21.8334C12.781 21.8351 14.1324 21.568 15.3934 21.0473C16.6545 20.5265 17.8006 19.7624 18.7662 18.7985" stroke="white" stroke-width="2" stroke-linecap="round" stroke-linejoin="round"/>
</svg>
