<svg width="72" height="82" viewBox="0 0 72 82" fill="none" xmlns="http://www.w3.org/2000/svg">
<path d="M0 0L6.44531 72.9102L35.8203 81.25L65.0781 72.9102L71.6504 0H0ZM58.1055 17.2949L57.6367 21.9043L57.4707 23.8086H23.1543L23.9551 33.0078H56.6797L56.3574 35.3809L54.2871 59.0332L54.1211 60.6152L35.8594 65.6543V65.6836H35.7422L35.7129 65.6934V65.6836H35.7031L17.2852 60.6055L16.1719 46.4844H25.0684L25.7031 53.6328L35.7031 56.3379H35.7422L45.7031 53.6426L46.8164 42.0605H35.7129V42.0508H15.7031L13.4766 17.2949L13.3105 14.9219H58.2617L58.1055 17.2949V17.2949Z" fill="white" fill-opacity="0.5"/>
</svg>
