<svg width="23" height="23" viewBox="0 0 23 23" fill="none" xmlns="http://www.w3.org/2000/svg">
<path fill-rule="evenodd" clip-rule="evenodd" d="M2.83395e-07 1.91459C2.83395e-07 1.40681 0.201715 0.919825 0.560769 0.560771C0.919823 0.201717 1.4068 2.55241e-06 1.91458 2.55241e-06H21C21.2516 -0.000408439 21.5009 0.0488181 21.7335 0.144864C21.9661 0.240909 22.1774 0.381888 22.3555 0.559728C22.5335 0.737568 22.6747 0.948777 22.771 1.18126C22.8673 1.41375 22.9168 1.66295 22.9167 1.91459V21C22.9169 21.2517 22.8676 21.501 22.7714 21.7336C22.6753 21.9662 22.5342 22.1775 22.3563 22.3555C22.1783 22.5336 21.9671 22.6747 21.7345 22.771C21.502 22.8673 21.2527 22.9168 21.001 22.9167H1.91458C1.66307 22.9167 1.41402 22.8671 1.18166 22.7708C0.949308 22.6745 0.738199 22.5334 0.5604 22.3555C0.382601 22.1776 0.241596 21.9665 0.14544 21.734C0.0492847 21.5016 -0.000136558 21.2526 2.83395e-07 21.001V1.91459ZM9.07083 8.7375H12.174V10.2958C12.6219 9.4 13.7677 8.59375 15.4896 8.59375C18.7906 8.59375 19.5729 10.3781 19.5729 13.6521V19.7167H16.2323V14.3979C16.2323 12.5333 15.7844 11.4813 14.6469 11.4813C13.0688 11.4813 12.4125 12.6156 12.4125 14.3979V19.7167H9.07083V8.7375ZM3.34167 19.574H6.68333V8.59375H3.34167V19.5729V19.574ZM7.16146 5.0125C7.16776 5.29862 7.11685 5.58311 7.01171 5.84929C6.90657 6.11546 6.74933 6.35796 6.5492 6.56254C6.34908 6.76712 6.1101 6.92966 5.84631 7.04063C5.58251 7.15161 5.29921 7.20877 5.01302 7.20877C4.72683 7.20877 4.44353 7.15161 4.17974 7.04063C3.91594 6.92966 3.67697 6.76712 3.47684 6.56254C3.27672 6.35796 3.11947 6.11546 3.01433 5.84929C2.9092 5.58311 2.85828 5.29862 2.86458 5.0125C2.87695 4.45089 3.10873 3.91645 3.5103 3.52363C3.91186 3.13082 4.45128 2.91085 5.01302 2.91085C5.57477 2.91085 6.11418 3.13082 6.51575 3.52363C6.91731 3.91645 7.14909 4.45089 7.16146 5.0125V5.0125Z" fill="white"/>
</svg>
