<svg width="18" height="14" viewBox="0 0 18 14" fill="none" xmlns="http://www.w3.org/2000/svg">

    <path d="M16.875 0H0.625C0.279297 0 0 0.279297 0 0.625V13.125C0 13.4707 0.279297 13.75 0.625 13.75H16.875C17.2207 13.75 17.5 13.4707 17.5 13.125V0.625C17.5 0.279297 17.2207 0 16.875 0ZM15.2969 2.12695L9.13477 6.92188C8.98242 7.04102 8.76953 7.04102 8.61719 6.92188L2.45312 2.12695C2.42989 2.10902 2.41285 2.08427 2.40438 2.05616C2.39592 2.02806 2.39647 1.99801 2.40594 1.97023C2.41542 1.94245 2.43335 1.91833 2.45722 1.90125C2.48109 1.88418 2.50971 1.875 2.53906 1.875H15.2109C15.2403 1.875 15.2689 1.88418 15.2928 1.90125C15.3167 1.91833 15.3346 1.94245 15.3441 1.97023C15.3535 1.99801 15.3541 2.02806 15.3456 2.05616C15.3372 2.08427 15.3201 2.10902 15.2969 2.12695Z" fill="white"/>
</svg>
