<?xml version="1.0" standalone="no"?>
<!DOCTYPE svg PUBLIC "-//W3C//DTD SVG 20010904//EN">
<svg version="1.0" xmlns="http://www.w3.org/2000/svg"
 width="431.000000pt" height="195.000000pt" viewBox="0 0 431.000000 195.000000"
 preserveAspectRatio="xMidYMid meet">

<g transform="translate(0.000000,195.000000) scale(0.100000,-0.100000)"
fill="#000000" stroke="none">
<path d="M2535 1764 c-588 -67 -1079 -123 -1090 -122 -19 0 2 6 177 45 l77 18
-402 1 c-288 0 -454 5 -587 17 -304 28 -312 27 -452 -40 l-119 -57 6 -35 c10
-58 16 -71 30 -71 11 0 12 -6 5 -25 -5 -14 -12 -83 -14 -153 -3 -105 -9 -139
-30 -198 -31 -85 -33 -143 -10 -301 15 -106 15 -116 -2 -190 -22 -94 -25 -279
-6 -336 8 -21 25 -51 39 -67 21 -26 22 -31 9 -36 -12 -5 -16 -20 -16 -63 l0
-56 238 0 c192 -1 266 -5 389 -23 l152 -23 203 21 c513 51 825 80 853 79 16
-1 -42 -16 -130 -35 l-160 -34 180 5 c99 3 288 13 420 21 261 18 448 14 605
-11 196 -31 257 -37 355 -30 84 5 701 82 801 100 23 4 39 17 62 53 70 109 93
219 93 450 0 106 6 176 21 252 14 73 19 131 16 192 -4 75 -9 96 -42 162 l-37
76 26 37 25 38 -57 3 c-55 2 -103 17 -103 32 0 4 22 19 50 34 61 33 90 69 90
110 0 41 -22 72 -63 85 -46 15 -205 31 -317 31 l-96 0 4 40 c2 22 1 52 -2 65
-8 30 -61 65 -96 64 -14 -1 -506 -57 -1095 -125z m-2052 -252 c14 -6 6 -18
-48 -72 -76 -76 -79 -71 -39 68 4 13 57 15 87 4z m477 -11 c0 -5 -9 -19 -20
-32 l-19 -24 -1 26 c0 14 3 29 7 32 9 10 33 8 33 -2z m233 -60 c6 -25 73 -53
107 -46 20 4 33 -3 69 -39 36 -37 41 -47 32 -64 -15 -28 16 -99 47 -107 20 -5
22 -11 22 -74 0 -64 -2 -69 -23 -75 -31 -7 -58 -72 -45 -106 8 -20 2 -30 -35
-68 -38 -38 -47 -43 -64 -33 -30 15 -101 -14 -109 -46 -6 -21 -11 -23 -74 -23
-62 0 -68 2 -74 23 -4 15 -23 29 -58 45 -29 12 -58 22 -64 22 -7 0 -17 -20
-23 -45 -13 -51 -71 -122 -107 -131 -27 -7 -31 -19 -10 -27 7 -3 23 -26 35
-51 22 -45 23 -45 79 -48 53 -3 58 -5 72 -35 14 -30 19 -33 62 -33 l47 0 3
122 3 123 35 -3 c61 -4 70 -26 70 -169 0 -68 -5 -133 -10 -144 -13 -24 -60
-44 -125 -53 -28 -4 -61 -10 -75 -13 -22 -6 -24 -5 -11 10 12 16 3 17 -130 17
-167 1 -212 9 -248 45 -24 23 -26 34 -29 119 -2 56 1 102 7 114 9 17 8 22 -8
27 -33 10 -91 83 -103 129 -7 27 -19 46 -29 49 -30 8 -54 55 -43 85 6 17 6 45
1 73 -19 97 37 205 129 250 68 33 201 38 272 11 l54 -21 -7 37 c-5 34 -2 41
34 76 33 32 43 37 68 32 37 -8 99 17 108 44 6 17 15 20 75 20 59 0 68 -3 73
-19z m614 -123 c10 -12 39 -103 69 -213 7 -27 20 -72 28 -98 l15 -48 -37 3
c-35 3 -37 5 -53 58 -15 51 -19 55 -52 61 -30 5 -37 2 -46 -18 -6 -13 -11 -30
-11 -38 0 -8 -5 -26 -12 -40 -9 -20 -18 -25 -46 -25 -23 0 -33 4 -29 13 2 6
26 84 52 172 26 88 52 166 57 173 6 6 21 12 33 12 12 0 27 -6 32 -12z m260 4
c7 -4 30 -50 52 -102 44 -104 45 -103 41 38 l-2 73 34 -3 33 -3 2 -172 c1
-184 -2 -198 -48 -191 -25 3 -26 5 -77 113 l-37 80 -5 -95 c-5 -94 -5 -95 -30
-95 l-25 0 -1 170 c-1 103 2 175 8 183 12 14 37 16 55 4z m490 -24 c-3 -28 -7
-33 -31 -33 -48 -1 -56 -25 -56 -173 l0 -133 -32 3 c-26 2 -33 7 -31 23 5 58
4 205 -2 237 -6 34 -10 37 -44 40 -33 3 -36 6 -39 36 l-3 32 121 0 121 0 -4
-32z m272 6 c19 -16 31 -35 31 -50 0 -14 4 -23 9 -20 14 9 31 -43 31 -97 -1
-105 -59 -180 -137 -175 -49 2 -103 30 -103 53 0 8 -9 30 -20 50 -22 39 -28
135 -9 135 6 0 9 6 6 14 -6 14 9 38 55 87 37 39 93 40 137 3z m245 4 c7 -13
26 -56 41 -95 16 -40 31 -73 35 -73 4 0 8 28 8 63 0 132 -1 127 32 127 l30 0
-1 -173 c0 -95 -4 -179 -8 -186 -11 -17 -62 -10 -72 9 -5 8 -23 50 -41 94
l-33 78 -5 -93 c-5 -93 -5 -94 -32 -97 -18 -2 -28 3 -32 15 -8 31 -4 317 6
336 13 24 55 22 72 -5z m-1352 -520 l3 -71 28 24 c20 17 30 37 34 67 5 40 7
42 39 42 32 0 34 -2 34 -32 0 -18 -10 -53 -21 -77 l-20 -45 21 -28 c25 -34 32
-57 34 -118 1 -41 -1 -45 -25 -48 -23 -3 -26 1 -40 59 -14 63 -53 110 -78 95
-6 -4 -11 -33 -11 -64 0 -85 -7 -102 -41 -102 l-29 0 0 185 1 185 34 0 34 0 3
-72z m446 -38 c58 -187 72 -236 72 -248 0 -7 -14 -12 -34 -12 -32 0 -34 2 -50
60 -9 33 -22 60 -29 61 -7 0 -22 2 -34 3 -24 3 -34 -13 -52 -81 -11 -40 -14
-43 -46 -43 -19 0 -35 4 -35 8 0 4 14 53 30 107 17 55 38 125 46 155 23 80 40
102 72 98 25 -3 30 -11 60 -108z m354 71 c34 -38 36 -78 8 -136 -19 -40 -19
-43 -3 -76 9 -19 20 -53 23 -76 l7 -43 -34 0 c-20 0 -33 5 -33 13 0 28 -21 85
-39 106 -10 11 -28 21 -40 21 -19 0 -21 -5 -21 -64 0 -67 -13 -86 -44 -63 -12
10 -16 44 -21 175 -3 89 -3 168 1 174 5 7 34 9 88 5 74 -5 83 -8 108 -36z
m194 -20 c-2 -32 0 -64 4 -71 13 -22 59 33 66 79 6 39 8 41 42 41 l35 0 -7
-41 c-4 -22 -15 -58 -26 -79 l-19 -37 23 -22 c13 -12 27 -37 31 -54 4 -18 9
-39 11 -47 2 -8 1 -27 -2 -42 -4 -21 -11 -28 -29 -28 -20 0 -25 6 -30 38 -10
58 -25 90 -51 107 -38 24 -44 19 -45 -42 -1 -85 -10 -107 -42 -111 l-27 -3 0
185 1 186 34 0 34 0 -3 -59z m463 33 c17 -14 31 -34 31 -45 0 -10 4 -19 8 -19
16 0 32 -51 32 -103 0 -116 -74 -192 -196 -201 -46 -4 -61 -3 -44 3 14 5 39
10 55 10 l30 2 -38 20 c-21 11 -40 28 -43 37 -3 9 -14 34 -25 55 -21 43 -26
137 -8 137 6 0 9 6 6 14 -6 14 9 38 55 87 37 39 93 40 137 3z m-2194 -125 c11
-1 0 -5 -25 -8 -51 -7 -55 -7 -45 9 4 7 17 9 29 6 11 -3 30 -6 41 -7z m-518
-39 c-8 -20 -20 -31 -40 -36 -16 -3 -31 -4 -33 -1 -4 4 74 67 82 67 1 0 -3
-13 -9 -30z m1003 -15 c0 -13 -21 -15 -125 -15 -104 0 -125 2 -125 15 0 13 21
15 125 15 104 0 125 -2 125 -15z m0 -70 c0 -13 -21 -15 -125 -15 -104 0 -125
2 -125 15 0 13 21 15 125 15 104 0 125 -2 125 -15z m2172 -66 c3 -34 2 -36
-18 -27 -21 10 -21 11 -5 51 9 23 17 35 18 27 1 -8 3 -31 5 -51z m-2382 -4 c0
-8 -9 -15 -20 -15 -11 0 -20 7 -20 15 0 8 9 15 20 15 11 0 20 -7 20 -15z m70
0 c0 -8 -9 -15 -20 -15 -11 0 -20 7 -20 15 0 8 9 15 20 15 11 0 20 -7 20 -15z
m70 0 c0 -8 -9 -15 -20 -15 -11 0 -20 7 -20 15 0 8 9 15 20 15 11 0 20 -7 20
-15z m70 0 c0 -8 -9 -15 -20 -15 -11 0 -20 7 -20 15 0 8 9 15 20 15 11 0 20
-7 20 -15z m-605 -185 c-3 -5 -13 -10 -21 -10 -8 0 -12 5 -9 10 3 6 13 10 21
10 8 0 12 -4 9 -10z m2680 -60 c-22 -4 -60 -10 -85 -13 l-45 -5 40 13 c22 7
60 13 85 13 l45 0 -40 -8z m-1482 -117 c-7 -2 -21 -2 -30 0 -10 3 -4 5 12 5
17 0 24 -2 18 -5z"/>
<path d="M1072 1409 c-10 -25 -72 -52 -121 -52 -46 0 -84 -36 -76 -70 4 -14 2
-34 -4 -45 -8 -15 -7 -23 4 -32 11 -9 17 -6 29 17 18 36 72 86 112 107 115 57
266 2 325 -120 31 -66 25 -163 -17 -230 -61 -99 -193 -142 -297 -96 -25 11
-48 18 -51 14 -16 -15 -2 -31 44 -50 30 -12 50 -27 50 -36 0 -24 87 -22 94 2
9 24 116 65 134 50 20 -17 78 43 65 67 -13 22 25 123 50 131 22 7 24 82 2 90
-23 9 -66 113 -55 133 7 14 3 24 -20 46 -16 16 -33 24 -40 20 -20 -13 -122 27
-133 53 -14 31 -84 32 -95 1z"/>
<path d="M1055 1313 c-42 -11 -92 -54 -119 -103 -13 -23 -12 -28 11 -54 l24
-29 35 34 c26 25 37 30 46 21 9 -9 5 -19 -17 -42 l-29 -30 27 -28 c21 -22 24
-31 15 -40 -9 -9 -18 -6 -39 14 l-27 25 -7 -57 c-7 -55 -6 -59 20 -80 31 -25
89 -44 131 -44 35 0 123 40 146 66 26 30 58 106 58 140 0 46 -27 114 -58 148
-51 54 -140 78 -217 59z m95 -102 c0 -9 -7 -59 -15 -111 -8 -52 -15 -98 -15
-102 0 -5 -8 -8 -18 -8 -18 0 -18 5 -6 93 22 153 23 157 39 150 8 -3 15 -13
15 -22z m95 -61 l39 -40 -39 -40 c-30 -31 -42 -37 -52 -28 -11 9 -9 16 13 40
l28 28 -28 29 c-25 26 -29 51 -7 51 4 0 25 -18 46 -40z"/>
<path d="M535 1231 c-75 -34 -120 -112 -113 -195 4 -48 28 -62 28 -18 0 37 40
87 77 97 15 3 33 15 41 26 16 23 62 26 62 4 0 -8 -6 -15 -14 -15 -21 0 -31
-21 -15 -31 8 -5 69 -9 137 -9 135 0 156 -9 169 -70 3 -17 12 -30 19 -30 24 0
19 112 -7 144 -11 14 -26 26 -33 26 -7 0 -25 14 -42 31 -43 47 -82 59 -181 59
-64 0 -99 -6 -128 -19z"/>
<path d="M540 1082 c-23 -7 -50 -34 -50 -49 0 -10 19 -13 74 -13 76 0 90 -7
98 -45 5 -27 32 -26 36 2 5 34 23 42 102 45 70 3 73 4 56 21 -15 14 -37 17
-139 17 -87 0 -128 4 -142 14 -11 7 -27 11 -35 8z"/>
<path d="M490 930 l0 -61 68 3 67 3 0 55 0 55 -67 3 -68 3 0 -61z m104 4 c9
-8 16 -20 16 -25 0 -14 -38 -11 -43 4 -4 10 -7 10 -18 0 -17 -17 -39 -17 -39
0 0 35 56 50 84 21z"/>
<path d="M734 976 c-3 -7 -4 -33 -2 -57 l3 -44 68 -3 67 -3 0 61 0 60 -65 0
c-47 0 -67 -4 -71 -14z m110 -48 c15 -24 -1 -35 -27 -19 -15 10 -22 10 -25 2
-4 -13 -42 -15 -42 -2 0 38 73 52 94 19z"/>
<path d="M424 935 c-8 -19 2 -45 16 -45 5 0 10 14 10 30 0 31 -16 41 -26 15z"/>
<path d="M910 920 c0 -21 4 -30 13 -27 6 2 12 14 12 27 0 13 -6 25 -12 28 -9
2 -13 -7 -13 -28z"/>
<path d="M660 892 c0 -46 -27 -62 -103 -62 -76 0 -81 -7 -44 -60 43 -63 69
-75 167 -75 98 0 124 12 168 75 36 54 31 60 -47 60 -79 0 -101 13 -101 61 0
22 -5 29 -20 29 -15 0 -20 -7 -20 -28z m-10 -112 c6 -11 19 -20 30 -20 11 0
24 9 30 20 13 23 40 27 40 5 0 -25 -38 -55 -70 -55 -32 0 -70 30 -70 55 0 22
27 18 40 -5z"/>
<path d="M1120 586 c0 -89 3 -106 15 -106 13 0 15 16 13 102 -2 70 -7 103 -15
106 -10 3 -13 -22 -13 -102z"/>
<path d="M622 649 c-27 -10 -35 -43 -30 -126 4 -57 8 -69 32 -90 26 -22 35
-24 119 -21 l92 3 3 40 c4 47 -15 65 -69 65 -28 0 -43 -6 -57 -24 -12 -16 -23
-22 -32 -16 -11 7 -10 13 3 34 29 44 17 128 -20 138 -10 3 -29 1 -41 -3z"/>
<path d="M730 595 c0 -45 0 -45 35 -45 19 0 35 2 35 5 0 17 -33 66 -50 75 -19
10 -20 8 -20 -35z"/>
<path d="M877 513 c-18 -17 -5 -33 28 -33 23 0 35 5 35 14 0 21 -47 35 -63 19z"/>
<path d="M877 443 c-4 -3 -7 -12 -7 -20 0 -11 27 -13 137 -11 122 3 138 5 141
21 3 15 -8 17 -131 17 -73 0 -137 -3 -140 -7z"/>
<path d="M1771 1193 c-1 -6 -4 -18 -7 -27 -4 -11 -1 -16 10 -16 18 0 19 6 6
35 -5 11 -9 15 -9 8z"/>
<path d="M2713 1233 c-25 -38 -33 -126 -14 -164 43 -91 134 -37 132 78 -1 97
-76 151 -118 86z"/>
<path d="M2095 707 c-4 -10 -5 -21 -1 -24 10 -10 18 4 13 24 -4 17 -4 17 -12
0z"/>
<path d="M2390 740 c0 -49 1 -50 30 -50 31 0 70 30 70 53 0 23 -35 47 -68 47
-32 0 -32 -1 -32 -50z"/>
<path d="M3060 758 c-14 -24 -20 -50 -20 -94 0 -51 4 -65 25 -88 29 -32 57
-29 93 10 21 24 26 48 22 109 -3 42 -19 69 -20 33 0 -16 -4 -28 -9 -28 -5 0
-9 19 -8 43 2 41 1 42 -30 45 -28 3 -36 -2 -53 -30z"/>
</g>
</svg>
