<svg width="29" height="29" viewBox="0 0 29 29" fill="none" xmlns="http://www.w3.org/2000/svg">
<path fill-rule="evenodd" clip-rule="evenodd" d="M23.0127 20.0014C24.5787 14.2548 20.8707 8.31941 14.7792 6.71461C7.90018 4.90036 -1.86332 9.61151 0.308676 15.6546C1.02868 17.6532 2.41468 18.1208 5.02918 18.1577L5.19268 18.1606C6.57418 18.1768 6.96268 18.2653 7.07968 18.4512C7.27018 18.758 7.27318 19.2462 7.05868 20.5899C6.95668 21.2242 6.92367 21.4454 6.88467 21.7921C6.64617 23.9028 7.00917 25.5489 8.41467 27.0386C12.8067 31.6893 21.2442 26.4885 23.0127 20.0014V20.0014ZM3.13768 14.6693C2.04418 11.6308 9.04168 8.25451 14.0022 9.56136C18.5277 10.7546 21.2412 15.0985 20.1147 19.2359C18.8577 23.8497 12.9417 27.4959 10.6137 25.0297C9.89367 24.2686 9.71517 23.4544 9.86667 22.1166C9.89817 21.8304 9.92817 21.6328 10.0227 21.0457C10.3512 18.9851 10.3467 18.0441 9.63567 16.9069C8.74468 15.4805 7.68567 15.2401 5.23017 15.2091L5.07117 15.2062C3.62518 15.187 3.28168 15.0705 3.13618 14.6693H3.13768Z" fill="#222A36"/>
<path d="M7.68271 14.1663C7.18543 14.1663 6.70851 13.972 6.35688 13.6262C6.00525 13.2805 5.80771 12.8115 5.80771 12.3225C5.80771 11.8335 6.00525 11.3646 6.35688 11.0188C6.70851 10.673 7.18543 10.4788 7.68271 10.4788C8.17999 10.4788 8.6569 10.673 9.00853 11.0188C9.36016 11.3646 9.55771 11.8335 9.55771 12.3225C9.55771 12.8115 9.36016 13.2805 9.00853 13.6262C8.6569 13.972 8.17999 14.1663 7.68271 14.1663V14.1663Z" fill="#222A36"/>
<path d="M13.3077 14.1663C12.8104 14.1663 12.3335 13.972 11.9819 13.6262C11.6303 13.2805 11.4327 12.8115 11.4327 12.3225C11.4327 11.8335 11.6303 11.3646 11.9819 11.0188C12.3335 10.673 12.8104 10.4788 13.3077 10.4788C13.805 10.4788 14.2819 10.673 14.6335 11.0188C14.9852 11.3646 15.1827 11.8335 15.1827 12.3225C15.1827 12.8115 14.9852 13.2805 14.6335 13.6262C14.2819 13.972 13.805 14.1663 13.3077 14.1663Z" fill="#222A36"/>
<path d="M17.0577 18.5913C16.5604 18.5913 16.0835 18.3971 15.7319 18.0513C15.3803 17.7055 15.1827 17.2366 15.1827 16.7476C15.1827 16.2586 15.3803 15.7896 15.7319 15.4438C16.0835 15.0981 16.5604 14.9038 17.0577 14.9038C17.555 14.9038 18.0319 15.0981 18.3835 15.4438C18.7352 15.7896 18.9327 16.2586 18.9327 16.7476C18.9327 17.2366 18.7352 17.7055 18.3835 18.0513C18.0319 18.3971 17.555 18.5913 17.0577 18.5913Z" fill="#222A36"/>
<path d="M14.8077 23.7538C14.3104 23.7538 13.8335 23.5595 13.4819 23.2138C13.1303 22.868 12.9327 22.399 12.9327 21.91C12.9327 21.421 13.1303 20.9521 13.4819 20.6063C13.8335 20.2605 14.3104 20.0663 14.8077 20.0663C15.305 20.0663 15.7819 20.2605 16.1335 20.6063C16.4852 20.9521 16.6827 21.421 16.6827 21.91C16.6827 22.399 16.4852 22.868 16.1335 23.2138C15.7819 23.5595 15.305 23.7538 14.8077 23.7538V23.7538Z" fill="#222A36"/>
<path d="M20.2377 4.7338C20.4156 4.6401 20.6108 4.58265 20.8118 4.56488C21.0127 4.54712 21.2153 4.56941 21.4073 4.63041C21.5993 4.69142 21.7768 4.78989 21.9292 4.91993C22.0816 5.04997 22.2057 5.2089 22.2942 5.38723L28.4337 17.7772C28.5362 17.9999 28.5486 18.2527 28.4684 18.4841C28.3882 18.7154 28.2214 18.9081 28.0019 19.0229C27.7824 19.1377 27.5267 19.1659 27.2868 19.102C27.0468 19.038 26.8407 18.8865 26.7102 18.6785L19.6482 6.7752C19.5467 6.60397 19.4814 6.41434 19.4562 6.21768C19.431 6.02103 19.4465 5.8214 19.5017 5.63076C19.5569 5.44013 19.6507 5.26242 19.7774 5.10829C19.9041 4.95416 20.0612 4.82678 20.2392 4.7338H20.2377Z" fill="#222A36"/>
<path fill-rule="evenodd" clip-rule="evenodd" d="M17.4881 4.55525C18.2186 5.90487 19.4471 6.28247 20.6351 5.6615C21.8216 5.042 22.1921 3.82807 21.4616 2.47845C20.6276 0.932648 18.8396 -0.468602 17.6546 0.149423C16.4696 0.768923 16.6526 3.00945 17.4896 4.55525H17.4881ZM18.8126 3.862C18.547 3.33754 18.3842 2.76861 18.3326 2.18492C18.3103 1.94091 18.3194 1.6951 18.3596 1.45332L18.3866 1.4666C18.4616 1.502 18.6941 1.6082 18.9911 1.84125C19.4441 2.19672 19.8941 2.72035 20.1371 3.17022C20.4806 3.80447 20.3831 4.12307 19.9301 4.36055C19.4801 4.59655 19.1561 4.49625 18.8126 3.86347V3.862Z" fill="#222A36"/>
</svg>
