<svg width="100" height="90" viewBox="0 0 100 90" fill="none" xmlns="http://www.w3.org/2000/svg">
<path d="M100 44.5375C100 37.9125 91.7042 31.6333 78.9833 27.7417C81.9208 14.7792 80.6167 4.4625 74.8667 1.15833C73.4734 0.378002 71.8965 -0.0147829 70.3 0.0208333V4.5625C71.2375 4.5625 71.9917 4.75 72.625 5.09583C75.3958 6.6875 76.6 12.7375 75.6625 20.525C75.4375 22.4417 75.0708 24.4583 74.6208 26.5167C70.361 25.4902 66.0375 24.7482 61.6792 24.2958C59.0827 20.7137 56.25 17.3089 53.2 14.1042C59.8458 7.92917 66.0833 4.54583 70.325 4.54583V0C64.7167 0 57.3792 3.99583 49.9583 10.925C42.5417 4.04167 35.2 0.0833333 29.5958 0.0833333V4.625C33.8167 4.625 40.075 7.99167 46.7208 14.125C43.8667 17.125 41.0125 20.525 38.3 24.2958C33.9326 24.7432 29.6015 25.4922 25.3375 26.5375C24.8667 24.5 24.5208 22.525 24.275 20.6292C23.3167 12.8375 24.5 6.7875 27.2542 5.17917C27.8625 4.8125 28.6583 4.64583 29.5958 4.64583V0.104167C27.8875 0.104167 26.3333 0.470833 24.9917 1.24167C19.2625 4.54583 17.9792 14.8375 20.9333 27.7625C8.25417 31.6792 0 37.9333 0 44.5375C0 51.1625 8.29583 57.4417 21.0167 61.3292C18.0792 74.2958 19.3833 84.6125 25.1333 87.9125C26.4583 88.6875 28.0083 89.0542 29.7167 89.0542C35.325 89.0542 42.6625 85.0583 50.0833 78.1292C57.5 85.0167 64.8375 88.9708 70.4458 88.9708C72.0546 89.0048 73.6435 88.6108 75.05 87.8292C80.7792 84.5292 82.0625 74.2375 79.1083 61.3125C91.7458 57.4208 100 51.1417 100 44.5375ZM73.4583 30.9417C72.6666 33.6661 71.7489 36.3523 70.7083 38.9917C69.0048 35.6782 67.1344 32.4532 65.1042 29.3292C68 29.7583 70.7917 30.2875 73.4625 30.9417H73.4583ZM64.125 52.65C62.5375 55.4 60.9042 58.0125 59.2125 60.4375C53.0969 60.9765 46.946 60.9835 40.8292 60.4583C37.3206 55.4466 34.2522 50.1407 31.6583 44.6C34.2483 39.0463 37.3036 33.7217 40.7917 28.6833C46.9058 28.1432 53.0553 28.1348 59.1708 28.6583C60.8625 31.0833 62.5167 33.675 64.1042 36.4083C65.6542 39.075 67.0625 41.7833 68.3458 44.5167C67.0483 47.2832 65.6402 49.9964 64.125 52.65V52.65ZM70.7083 50C71.8083 52.7292 72.75 55.4625 73.5208 58.1125C70.8542 58.7667 68.0375 59.3167 65.125 59.7417C67.1468 56.5892 69.0103 53.338 70.7083 50V50ZM50.0417 71.75C48.1458 69.7917 46.25 67.6125 44.375 65.225C46.2083 65.3083 48.0833 65.3708 49.9792 65.3708C51.8958 65.3708 53.7917 65.3292 55.6458 65.225C53.8125 67.6125 51.9167 69.7917 50.0417 71.75ZM34.875 59.7417C32.0656 59.3346 29.2765 58.7979 26.5167 58.1333C27.2708 55.5042 28.2083 52.7917 29.2667 50.0833C30.1042 51.7083 30.9833 53.3417 31.9417 54.975C32.9 56.6042 33.875 58.1958 34.875 59.7417ZM49.9375 17.325C51.8333 19.2833 53.7292 21.4625 55.6042 23.85C53.7708 23.7667 51.8958 23.7042 50 23.7042C48.0833 23.7042 46.1875 23.7458 44.3333 23.85C46.1667 21.4625 48.0625 19.2833 49.9375 17.325ZM34.8542 29.3333C32.8328 32.4789 30.9694 35.7232 29.2708 39.0542C28.2009 36.3978 27.2623 33.6903 26.4583 30.9417C29.125 30.3083 31.9417 29.7583 34.8542 29.3333ZM16.4083 54.85C9.19167 51.775 4.525 47.7375 4.525 44.5375C4.525 41.3375 9.19167 37.2792 16.4083 34.225C18.1583 33.4708 20.075 32.7958 22.0542 32.1667C23.2167 36.1583 24.7458 40.3167 26.6375 44.5792C24.8515 48.5883 23.3411 52.7145 22.1167 56.9292C20.181 56.3298 18.276 55.636 16.4083 54.85V54.85ZM27.375 83.975C24.6042 82.3917 23.4 76.3333 24.3375 68.55C24.5625 66.6333 24.9292 64.6125 25.3792 62.5542C29.3708 63.5333 33.7333 64.2875 38.3208 64.7792C40.9174 68.3612 43.7501 71.766 46.8 74.9708C40.1542 81.1458 33.9167 84.5292 29.675 84.5292C28.8748 84.5379 28.0847 84.349 27.375 83.9792V83.975ZM75.725 68.4458C76.6833 76.2333 75.5 82.2875 72.7458 83.8958C72.1375 84.2625 71.3417 84.425 70.4042 84.425C66.1833 84.425 59.925 81.0625 53.2792 74.925C56.1333 71.9333 58.9875 68.5292 61.7 64.7583C66.0674 64.311 70.3985 63.562 74.6625 62.5167C75.1333 64.575 75.4958 66.55 75.725 68.4458V68.4458ZM83.5708 54.85C81.8208 55.6042 79.9042 56.2792 77.925 56.9083C76.6791 52.6722 75.1478 48.5252 73.3417 44.4958C75.2167 40.2583 76.7208 36.1208 77.8625 32.1458C79.8833 32.775 81.7958 33.4708 83.5917 34.225C90.8083 37.3 95.475 41.3375 95.475 44.5375C95.4542 47.7375 90.7875 51.7958 83.5708 54.85V54.85Z" fill="white" fill-opacity="0.5"/>
<path d="M49.9791 53.8543C52.4501 53.8543 54.8198 52.8727 56.567 51.1255C58.3142 49.3783 59.2958 47.0085 59.2958 44.5376C59.2958 42.0667 58.3142 39.6969 56.567 37.9497C54.8198 36.2025 52.4501 35.2209 49.9791 35.2209C47.5082 35.2209 45.1385 36.2025 43.3913 37.9497C41.644 39.6969 40.6625 42.0667 40.6625 44.5376C40.6625 47.0085 41.644 49.3783 43.3913 51.1255C45.1385 52.8727 47.5082 53.8543 49.9791 53.8543V53.8543Z" fill="white" fill-opacity="0.5"/>
</svg>
