<svg width="100" height="75" viewBox="0 0 100 75" fill="none" xmlns="http://www.w3.org/2000/svg">
<path d="M47.1636 56.7056C47.1167 56.7993 47.0698 56.8743 47.1636 56.7056V56.7056ZM86.0886 43.1118C82.9448 43.1118 79.8448 43.8306 77.0261 45.2212C76.1042 43.3618 75.1511 41.7368 74.9948 40.5181C74.8073 39.0962 74.6042 38.2525 74.8229 36.565C75.0417 34.8775 76.0261 32.4868 76.0104 32.315C75.9948 32.1431 75.7917 31.2837 73.7761 31.2681C71.7604 31.2525 70.0261 31.6587 69.8229 32.19C69.4663 33.1606 69.1893 34.1587 68.9948 35.1743C68.6354 37.0025 64.9667 43.5337 62.8886 46.94C62.2011 45.6118 61.6229 44.44 61.4979 43.5025C61.3104 42.0806 61.1073 41.2368 61.3261 39.5493C61.5448 37.8618 62.5292 35.4712 62.5136 35.2993C62.4979 35.1275 62.2948 34.2681 60.2823 34.2525C58.2698 34.2368 56.5323 34.6431 56.3292 35.1743C56.1261 35.7056 55.9073 36.9556 55.5011 38.1587C55.0948 39.3618 50.2042 50.2368 48.9261 53.065C48.2698 54.5025 47.7073 55.6587 47.3011 56.44C47.2386 56.565 47.1917 56.6431 47.1604 56.7056C47.2073 56.6275 47.2386 56.5493 47.2386 56.5806C46.8948 57.2525 46.6917 57.6275 46.6917 57.6275V57.6431C46.4261 58.1431 46.1292 58.5962 45.9886 58.5962C45.8948 58.5962 45.6917 57.2837 46.0354 55.4868C46.7698 51.7056 48.5042 45.8306 48.4886 45.6275C48.4729 45.5181 48.8167 44.5025 47.3479 43.9556C45.9261 43.44 45.4104 44.2993 45.2854 44.2993C45.1604 44.2993 45.0667 44.6118 45.0667 44.6118C45.0667 44.6118 46.6448 37.9868 42.0354 37.9868C39.1604 37.9868 35.1604 41.1431 33.1948 44.0025C31.9604 44.6743 29.2886 46.1275 26.4761 47.6743L23.2417 49.4556C23.1636 49.3775 23.1011 49.2993 23.0229 49.2212C17.4292 43.2525 7.10419 39.0337 7.54169 31.0181C7.69794 28.0962 8.71357 20.4243 27.3979 11.1118C42.7104 3.48684 54.9511 5.58059 57.0604 10.2368C60.0917 16.8775 50.5136 29.2368 34.6136 31.0181C28.5511 31.69 25.3667 29.3462 24.5698 28.4712C23.7417 27.5493 23.6167 27.5025 23.3042 27.6743C22.7886 27.9556 23.1167 28.7681 23.3042 29.2525C23.7729 30.4868 25.7261 32.6743 29.0542 33.7681C31.9761 34.7212 39.0823 35.2525 47.6729 31.9243C57.3261 28.2056 64.8417 17.8462 62.6354 9.17434C60.3917 0.361837 45.7792 -2.52879 31.9636 2.37746C23.7292 5.29934 14.8261 9.89309 8.42294 15.8775C0.813569 23.0025 -0.402056 29.2056 0.0979444 31.7993C1.87919 41.0025 14.5636 47.0025 19.6386 51.44L18.9354 51.8306C16.3886 53.0962 6.71982 58.1587 4.29794 63.5025C1.56357 69.565 4.75107 73.9087 6.84169 74.5025C13.3729 76.315 20.0573 73.0493 23.6511 67.69C27.2448 62.3306 26.8073 55.3306 25.1511 52.1431C25.1354 52.0962 25.1042 52.065 25.0886 52.0181C26.9635 50.9076 28.8543 49.8241 30.7604 48.7681C30.1354 50.4556 29.6823 52.4868 29.4479 55.4243C29.1667 58.8618 30.5886 63.315 32.4323 65.065C33.2448 65.8306 34.2261 65.8462 34.8386 65.8462C36.9948 65.8462 37.9636 64.065 39.0417 61.94C40.3698 59.3462 41.5417 56.3306 41.5417 56.3306C41.5417 56.3306 40.0729 64.4868 44.0886 64.4868C45.5573 64.4868 47.0261 62.5962 47.6823 61.6275V61.6431C47.6823 61.6431 47.7136 61.5806 47.7917 61.4556C47.9479 61.2212 48.0261 61.0806 48.0261 61.0806V61.0337C48.6198 60.0181 49.9167 57.69 51.8698 53.8462C54.4011 48.8775 56.8198 42.6743 56.8198 42.6743C57.0542 44.0368 57.3792 45.3837 57.7886 46.7056C58.2261 48.19 59.1479 49.815 59.8823 51.3931C59.2886 52.2056 58.9292 52.6743 58.9292 52.6743C58.9292 52.6868 58.9354 52.6962 58.9448 52.7056C58.4761 53.3306 57.9448 54.0025 57.3979 54.6587C55.4011 57.0337 53.0229 59.7525 52.7104 60.5337C52.3354 61.4556 52.4292 62.1431 53.1479 62.6743C53.6792 63.0806 54.6167 63.1431 55.6011 63.065C57.3979 62.94 58.6636 62.5025 59.2729 62.2212C60.3969 61.8185 61.4592 61.2611 62.4292 60.565C64.3823 59.1275 65.5698 57.065 65.4604 54.3462C65.3979 52.8462 64.9136 51.3462 64.3198 49.94C64.4917 49.69 64.6792 49.4243 64.8511 49.1587C66.8844 46.1248 68.7165 42.9607 70.3354 39.6868C70.5698 41.0493 70.8917 42.3962 71.3042 43.7181C71.6792 44.9837 72.4136 46.3743 73.0854 47.7337C70.1792 50.0931 68.3823 52.8275 67.7604 54.6243C66.6042 57.9525 67.5104 59.4525 69.2136 59.7962C69.9792 59.9525 71.0729 59.5931 71.8854 59.2493C73.0917 58.8462 74.2292 58.2618 75.2573 57.515C77.2104 56.0775 79.1011 54.0618 78.9729 51.3275C78.9261 50.0931 78.5823 48.8587 78.1292 47.6712C80.5823 46.64 83.7698 46.0775 87.8323 46.5462C96.5323 47.5618 98.2354 52.9993 97.9073 55.265C97.5792 57.5306 95.7511 58.7962 95.1417 59.1712C94.5323 59.5462 94.3448 59.6868 94.3917 59.9681C94.4698 60.3743 94.7511 60.3587 95.2667 60.265C95.9854 60.14 99.8292 58.4212 100.001 54.2181C100.251 48.9056 95.1417 43.0618 86.0948 43.1087L86.0886 43.1118ZM19.0292 65.7212C16.1542 68.8618 12.1261 70.0493 10.3917 69.0493C8.53232 67.9681 9.2667 63.3462 12.8104 59.9993C14.9667 57.9681 17.7479 56.0931 19.5917 54.9368C20.0136 54.6868 20.6229 54.3118 21.3729 53.8587C21.4339 53.8197 21.4964 53.7832 21.5604 53.7493C21.7011 53.6556 21.8573 53.5775 22.0136 53.4837C23.3073 58.2337 22.0604 62.4212 19.0292 65.7181V65.7212ZM40.0229 51.44C39.0229 53.8931 36.9167 60.1431 35.6323 59.815C34.5386 59.5337 33.8667 54.7681 35.4136 50.0806C36.1948 47.7212 37.8511 44.9087 38.8354 43.815C40.4136 42.0493 42.1479 41.4868 42.5542 42.19C43.1011 43.1118 40.6479 49.9087 40.0229 51.44ZM57.3667 59.7212C56.9448 59.94 56.5542 60.0806 56.3667 59.9712C56.2261 59.8931 56.5386 59.5962 56.5386 59.5962C56.5386 59.5962 58.7104 57.2681 59.5698 56.2056C60.0698 55.5806 60.6479 54.8462 61.2729 54.0337C61.2729 54.1118 61.2886 54.19 61.2886 54.2837C61.2698 57.0806 58.5823 58.9712 57.3636 59.7212H57.3667ZM70.7417 56.6743C70.4292 56.4556 70.4761 55.7212 71.5229 53.44C71.9292 52.5493 72.8667 51.0493 74.4917 49.6118C74.6761 50.1556 74.7761 50.7243 74.7886 51.2993C74.7729 54.815 72.2573 56.1275 70.7417 56.6743V56.6743Z" fill="white" fill-opacity="0.5"/>
</svg>
