<svg width="25" height="18" viewBox="0 0 25 18" fill="none" xmlns="http://www.w3.org/2000/svg">
<path d="M19.3359 10.0664C18.1883 10.0664 17.1102 9.58203 16.1336 8.78906L16.3695 7.67031L16.3773 7.62578C16.593 6.4375 17.2602 4.43984 19.3352 4.43984C20.0818 4.44005 20.7979 4.73676 21.3259 5.26475C21.8539 5.79274 22.1506 6.50878 22.1508 7.25547C22.1495 8.00148 21.8524 8.71652 21.3245 9.24366C20.7966 9.77081 20.0812 10.067 19.3352 10.0672L19.3359 10.0664ZM19.3359 1.59062C16.6914 1.59062 14.6359 3.30781 13.8023 6.13594C12.5328 4.22734 11.5641 1.93281 11.0031 0H8.15469V7.40937C8.15324 8.11258 7.87325 8.78658 7.37601 9.28382C6.87876 9.78107 6.20477 10.0611 5.50156 10.0625C4.79854 10.0604 4.12491 9.78025 3.6278 9.28314C3.13069 8.78603 2.8505 8.11239 2.84844 7.40937V0H0V7.40937C0 10.4445 2.46953 12.9313 5.50156 12.9313C8.53672 12.9313 11.0031 10.4453 11.0031 7.40937V6.16797C11.5562 7.31953 12.2359 8.49141 13.0617 9.525L11.3164 17.7242H14.2297L15.4953 11.775C16.6023 12.4828 17.8758 12.9305 19.3367 12.9305C22.4617 12.9305 25.0008 10.375 25.0008 7.25391C25.0008 4.12891 22.4617 1.58984 19.3367 1.58984L19.3359 1.59062Z" fill="white"/>
</svg>
