<svg width="25" height="17" viewBox="0 0 25 17" fill="none" xmlns="http://www.w3.org/2000/svg">
<path d="M24.4798 2.61662C24.3383 2.11166 24.0625 1.65448 23.6819 1.29371C23.2905 0.921836 22.8109 0.655828 22.2881 0.52079C20.3319 0.00516539 12.4944 0.00516551 12.4944 0.00516551C9.22703 -0.0320088 5.96047 0.131493 2.71314 0.494749C2.19042 0.639762 1.71165 0.911714 1.31939 1.28642C0.933976 1.65725 0.65481 2.11454 0.508976 2.61558C0.158656 4.50282 -0.0115529 6.41907 0.000642899 8.3385C-0.0118571 10.2562 0.157935 12.1718 0.508976 14.0614C0.651685 14.5604 0.92981 15.0156 1.31627 15.3833C1.70273 15.751 2.18398 16.0166 2.71314 16.1573C4.69544 16.6718 12.4944 16.6718 12.4944 16.6718C15.7659 16.7091 19.0366 16.5456 22.2881 16.1823C22.8109 16.0472 23.2905 15.7812 23.6819 15.4093C24.0673 15.0416 24.3413 14.5843 24.4788 14.0864C24.8382 12.1999 25.013 10.2829 25.0006 8.36246C25.0277 6.43392 24.8531 4.50784 24.4798 2.61558V2.61662ZM10.0027 11.9052V4.77287L16.5236 8.33954L10.0027 11.9052Z" fill="white"/>
</svg>
